<?xml version="1.0" standalone="no"?>
<!DOCTYPE svg PUBLIC "-//W3C//DTD SVG 20010904//EN"
 "http://www.w3.org/TR/2001/REC-SVG-20010904/DTD/svg10.dtd">
<svg version="1.0" xmlns="http://www.w3.org/2000/svg"
 width="700.000000pt" height="700.000000pt" viewBox="0 0 700.000000 700.000000"
 preserveAspectRatio="xMidYMid meet">
<metadata>
</metadata>
<g transform="translate(0.000000,700.000000) scale(0.100000,-0.100000)"
fill="#000000" stroke="none">
<path d="M695 6298 c-3 -7 -4 -1271 -3 -2808 l3 -2795 2805 0 2805 0 0 2805 0
2805 -2803 3 c-2237 2 -2804 0 -2807 -10z m3109 -974 c3 -9 6 -46 6 -82 0 -95
18 -240 34 -271 7 -14 24 -48 37 -74 75 -151 234 -270 416 -311 95 -21 158
-20 261 5 97 23 154 50 230 107 162 121 242 299 242 537 0 75 3 94 16 99 9 3
79 6 156 6 l140 0 -5 -397 c-5 -447 -4 -440 -82 -602 -60 -124 -117 -202 -211
-290 -110 -103 -248 -179 -406 -226 -80 -23 -363 -24 -428 -1 -25 9 -50 16
-57 16 -6 0 -22 4 -35 9 -13 5 -27 9 -33 11 -26 5 -137 70 -202 118 -161 119
-278 279 -344 472 l-33 95 -5 275 -6 275 -35 3 c-35 3 -177 -31 -260 -63 -58
-21 -133 -78 -237 -179 -64 -63 -83 -87 -83 -109 0 -15 -4 -27 -8 -27 -5 0
-17 -19 -27 -42 -9 -24 -21 -50 -25 -58 -4 -9 -14 -64 -21 -123 -10 -88 -11
-129 0 -225 7 -64 17 -121 22 -127 5 -5 9 -19 9 -32 0 -21 47 -100 117 -197
35 -47 118 -118 127 -108 4 4 6 1 4 -6 -4 -16 173 -112 207 -112 13 0 43 -9
68 -19 32 -14 57 -18 87 -14 23 3 86 1 139 -5 182 -21 326 -33 441 -38 63 -3
135 -9 160 -14 25 -5 110 -14 190 -20 179 -13 212 -17 275 -37 101 -32 168
-65 285 -141 157 -103 298 -294 366 -494 37 -111 38 -116 40 -281 l2 -168 -43
-125 c-23 -69 -64 -160 -91 -206 -66 -111 -220 -266 -330 -331 -76 -45 -228
-106 -304 -122 -19 -5 -332 -11 -695 -14 -573 -6 -662 -5 -672 8 -9 10 -13 52
-13 125 -1 70 -6 126 -15 151 -8 22 -15 48 -15 58 0 9 -4 25 -9 35 -5 9 -17
34 -26 55 -9 20 -19 37 -23 37 -4 0 -13 9 -20 21 -11 17 -11 20 0 13 24 -14
-52 67 -108 116 -63 55 -159 105 -235 122 -56 13 -227 16 -289 6 -43 -7 -65
-14 -109 -36 -19 -9 -38 -17 -42 -17 -28 0 -209 -166 -209 -191 0 -6 -7 -17
-15 -24 -26 -21 -65 -115 -72 -169 -3 -28 -9 -51 -13 -51 -4 0 -9 -51 -11
-113 -3 -79 -8 -119 -18 -131 -12 -14 -34 -17 -158 -15 l-145 1 5 371 c3 205
7 384 10 399 10 54 60 194 93 259 39 79 130 195 205 264 55 50 179 141 189
138 3 0 22 8 42 18 181 93 448 110 653 44 278 -91 494 -297 595 -570 38 -102
40 -115 50 -279 5 -94 10 -224 10 -288 l0 -118 43 0 c43 0 156 23 192 39 142
63 177 84 250 157 120 121 160 190 209 366 24 85 21 228 -8 341 -23 90 -49
156 -68 168 -5 3 -10 14 -12 23 -8 57 -176 214 -287 269 -107 52 -207 74 -409
86 -96 6 -222 16 -280 21 -58 5 -190 17 -295 25 -430 35 -469 42 -640 125
-139 66 -215 126 -307 238 -120 145 -161 223 -205 390 -27 104 -36 271 -20
382 11 72 60 220 98 289 85 160 250 325 410 410 74 40 227 91 303 100 33 5
343 9 687 10 563 1 627 -1 633 -15z"/>
</g>
</svg>
