<svg id="svg" version="1.1" xmlns="http://www.w3.org/2000/svg" xmlns:xlink="http://www.w3.org/1999/xlink" width="400" height="400" viewBox="0, 0, 400,400"><g id="svgg"><path id="path0" d="M146.200 95.975 C 145.760 96.154,143.870 96.432,142.000 96.594 C 140.130 96.756,138.042 97.118,137.359 97.399 C 136.677 97.680,135.327 98.043,134.359 98.205 C 133.392 98.367,132.245 98.748,131.811 99.050 C 131.377 99.353,130.747 99.606,130.411 99.614 C 130.075 99.621,129.080 99.975,128.200 100.400 C 127.320 100.825,126.474 101.179,126.320 101.186 C 126.166 101.194,125.240 101.740,124.262 102.400 C 123.284 103.060,122.371 103.600,122.233 103.600 C 121.958 103.600,118.873 105.560,118.142 106.199 C 117.890 106.420,117.097 107.050,116.381 107.600 C 114.697 108.893,108.893 114.697,107.600 116.381 C 107.050 117.097,106.420 117.890,106.199 118.142 C 105.560 118.873,103.600 121.958,103.600 122.233 C 103.600 122.371,103.060 123.284,102.400 124.262 C 101.740 125.240,101.194 126.166,101.186 126.320 C 101.179 126.474,100.825 127.320,100.400 128.200 C 99.975 129.080,99.621 130.075,99.614 130.411 C 99.606 130.747,99.353 131.377,99.050 131.811 C 98.748 132.245,98.367 133.410,98.204 134.400 C 98.041 135.390,97.723 136.550,97.498 136.977 C 96.525 138.827,95.209 152.837,95.926 153.723 C 96.138 153.985,96.441 155.730,96.600 157.600 C 96.758 159.470,97.118 161.558,97.399 162.241 C 97.680 162.923,98.043 164.273,98.205 165.241 C 98.367 166.208,98.748 167.355,99.050 167.789 C 99.353 168.223,99.600 168.892,99.600 169.277 C 99.600 169.915,100.728 172.535,101.635 174.000 C 101.839 174.330,102.227 175.050,102.498 175.600 C 102.769 176.150,103.218 176.838,103.495 177.129 C 103.773 177.419,104.000 177.832,104.000 178.045 C 104.000 178.381,105.429 180.633,106.002 181.200 C 106.114 181.310,106.731 182.120,107.375 183.000 C 109.112 185.373,114.323 190.641,116.179 191.900 C 118.025 193.152,118.569 193.555,119.562 194.400 C 120.833 195.482,129.499 200.000,130.303 200.000 C 130.526 200.000,131.224 200.269,131.854 200.598 C 132.484 200.926,133.360 201.197,133.800 201.200 C 134.240 201.203,135.140 201.487,135.800 201.831 C 136.460 202.175,138.400 202.617,140.112 202.812 C 141.824 203.008,143.388 203.269,143.589 203.393 C 143.790 203.517,147.429 203.800,151.677 204.021 C 155.925 204.242,159.906 204.592,160.525 204.799 C 161.143 205.006,164.293 205.286,167.525 205.421 C 170.756 205.555,175.470 205.916,178.000 206.222 C 180.530 206.527,185.210 206.881,188.400 207.008 C 191.590 207.135,194.830 207.411,195.600 207.621 C 196.370 207.832,199.663 208.168,202.917 208.367 C 206.171 208.567,209.051 208.906,209.317 209.120 C 209.583 209.334,210.586 209.639,211.546 209.798 C 213.696 210.153,216.679 211.392,221.478 213.926 C 227.879 217.305,239.200 230.510,239.200 234.598 C 239.200 234.944,239.452 235.627,239.761 236.114 C 240.069 236.601,240.446 237.630,240.597 238.400 C 240.749 239.170,241.127 240.571,241.436 241.514 C 242.231 243.931,242.228 256.979,241.432 259.092 C 241.119 259.921,240.744 261.311,240.599 262.180 C 240.453 263.048,240.079 264.123,239.767 264.569 C 239.455 265.014,239.200 265.683,239.200 266.056 C 239.200 266.429,238.705 267.667,238.100 268.806 C 237.495 269.945,236.730 271.384,236.400 272.004 C 233.472 277.499,224.574 285.777,219.200 288.006 C 218.650 288.235,217.660 288.666,217.000 288.966 C 213.894 290.377,212.663 290.811,211.094 291.051 C 210.163 291.193,209.168 291.492,208.885 291.716 C 208.009 292.408,200.380 292.613,199.964 291.956 C 199.771 291.650,199.599 285.910,199.582 279.200 C 199.566 272.490,199.380 266.100,199.168 265.000 C 198.957 263.900,198.632 261.698,198.446 260.106 C 198.260 258.514,197.919 256.984,197.689 256.706 C 197.460 256.428,197.145 255.480,196.991 254.600 C 196.837 253.720,196.460 252.601,196.155 252.114 C 195.850 251.627,195.600 251.034,195.600 250.797 C 195.600 250.123,193.381 245.563,192.235 243.882 C 191.666 243.047,191.200 242.291,191.200 242.202 C 191.200 240.943,185.189 234.111,180.991 230.600 C 179.676 229.500,178.510 228.509,178.400 228.399 C 177.772 227.767,174.883 226.000,174.478 226.000 C 174.215 226.000,174.000 225.846,174.000 225.657 C 174.000 225.254,170.164 223.200,169.412 223.200 C 169.129 223.200,168.690 222.949,168.435 222.642 C 168.180 222.335,167.312 221.960,166.506 221.809 C 165.700 221.658,164.677 221.279,164.231 220.967 C 163.786 220.655,162.944 220.400,162.360 220.400 C 161.776 220.400,160.633 220.122,159.820 219.783 C 155.667 218.047,138.965 218.060,135.598 219.801 C 134.961 220.130,133.986 220.400,133.431 220.400 C 132.876 220.400,131.652 220.748,130.711 221.174 C 129.770 221.600,127.920 222.363,126.600 222.870 C 125.280 223.378,124.106 223.918,123.992 224.071 C 123.877 224.225,123.337 224.544,122.792 224.781 C 121.749 225.234,121.070 225.660,117.507 228.100 C 114.058 230.462,107.433 237.353,104.947 241.165 C 103.714 243.054,102.367 245.088,101.953 245.684 C 101.539 246.280,101.194 246.910,101.186 247.084 C 101.179 247.258,100.825 248.120,100.400 249.000 C 99.975 249.880,99.621 250.875,99.614 251.211 C 99.606 251.547,99.353 252.177,99.050 252.611 C 98.748 253.045,98.367 254.210,98.204 255.200 C 98.041 256.190,97.711 257.360,97.471 257.800 C 95.865 260.743,94.766 302.015,96.250 303.655 C 97.199 304.704,111.358 304.806,111.757 303.767 C 111.891 303.419,112.004 300.584,112.010 297.467 C 112.015 294.350,112.206 291.080,112.435 290.200 C 112.664 289.320,113.020 287.790,113.225 286.800 C 113.431 285.810,113.851 284.460,114.160 283.800 C 114.468 283.140,115.213 281.520,115.816 280.200 C 116.418 278.880,117.023 277.710,117.159 277.600 C 117.296 277.490,117.918 276.590,118.542 275.600 C 119.887 273.465,126.221 267.200,127.033 267.200 C 127.345 267.200,127.600 267.030,127.600 266.822 C 127.600 266.414,128.319 265.976,131.653 264.356 C 136.178 262.157,137.667 261.600,139.024 261.600 C 139.795 261.600,141.072 261.330,141.862 261.000 C 143.786 260.196,150.791 260.193,153.436 260.996 C 154.516 261.323,155.847 261.593,156.392 261.596 C 157.327 261.600,161.084 262.879,162.400 263.641 C 162.730 263.832,163.540 264.266,164.200 264.605 C 166.041 265.551,168.996 267.418,170.000 268.271 C 173.517 271.256,178.800 277.725,178.800 279.047 C 178.800 279.297,179.058 279.717,179.374 279.979 C 179.690 280.241,180.072 281.018,180.223 281.705 C 180.374 282.392,180.746 283.203,181.049 283.506 C 181.352 283.809,181.601 284.539,181.602 285.129 C 181.604 285.718,181.904 286.740,182.269 287.400 C 182.797 288.354,182.981 290.200,183.167 296.400 L 183.400 304.200 219.400 304.180 C 256.006 304.159,260.901 303.986,263.575 302.619 C 264.139 302.331,265.364 301.968,266.298 301.812 C 267.232 301.657,268.088 301.382,268.200 301.200 C 268.312 301.018,269.113 300.750,269.979 300.604 C 270.845 300.457,271.766 300.082,272.026 299.769 C 272.286 299.456,272.759 299.200,273.078 299.200 C 273.611 299.200,277.137 297.337,277.600 296.811 C 277.710 296.686,278.250 296.355,278.800 296.076 C 280.572 295.176,281.702 294.481,281.954 294.134 C 282.089 293.948,282.920 293.267,283.800 292.621 C 285.863 291.107,291.107 285.863,292.621 283.800 C 293.267 282.920,293.948 282.089,294.134 281.954 C 294.481 281.702,295.176 280.572,296.076 278.800 C 296.355 278.250,296.692 277.710,296.824 277.600 C 297.034 277.424,298.180 275.292,299.866 271.938 C 300.160 271.354,300.401 270.634,300.402 270.338 C 300.404 270.042,300.667 269.297,300.988 268.683 C 301.308 268.069,301.691 266.899,301.839 266.083 C 301.986 265.267,302.344 264.132,302.633 263.560 C 304.543 259.781,304.539 240.979,302.627 237.240 C 302.334 236.668,301.968 235.436,301.812 234.502 C 301.657 233.568,301.366 232.703,301.165 232.578 C 300.964 232.454,300.800 232.041,300.800 231.661 C 300.800 231.280,300.440 230.263,300.000 229.400 C 299.560 228.537,299.200 227.681,299.200 227.497 C 299.200 227.313,298.345 225.718,297.300 223.953 C 296.255 222.187,295.191 220.371,294.936 219.917 C 294.681 219.463,294.317 218.981,294.127 218.846 C 293.937 218.711,293.471 218.112,293.092 217.516 C 291.560 215.107,286.084 209.761,282.200 206.883 C 279.199 204.659,273.888 201.600,273.028 201.600 C 272.736 201.600,272.274 201.330,272.000 201.000 C 271.726 200.670,271.209 200.394,270.851 200.386 C 270.493 200.379,269.480 200.025,268.600 199.600 C 267.720 199.175,266.577 198.821,266.060 198.814 C 265.544 198.806,264.554 198.537,263.860 198.215 C 262.416 197.544,257.993 196.920,250.800 196.372 C 248.050 196.162,243.820 195.802,241.400 195.571 C 238.980 195.340,233.490 194.911,229.200 194.618 C 224.910 194.326,219.420 193.886,217.000 193.641 C 214.580 193.396,210.440 193.021,207.800 192.807 C 198.375 192.045,193.774 191.586,192.000 191.231 C 188.846 190.599,186.634 189.997,185.400 189.434 C 184.740 189.133,183.370 188.507,182.356 188.043 C 181.342 187.579,180.395 187.200,180.252 187.200 C 179.761 187.200,172.193 181.713,170.598 180.200 C 169.245 178.918,165.200 173.750,165.200 173.305 C 165.200 173.081,164.911 172.658,164.558 172.365 C 164.205 172.073,163.756 171.465,163.559 171.016 C 163.363 170.567,163.052 169.930,162.869 169.600 C 161.515 167.158,160.800 165.534,160.800 164.901 C 160.800 164.493,160.601 163.961,160.359 163.719 C 160.116 163.476,159.680 162.135,159.390 160.739 C 159.100 159.342,158.673 157.480,158.441 156.600 C 158.209 155.720,158.019 152.660,158.019 149.800 C 158.019 146.940,158.209 143.880,158.441 143.000 C 158.673 142.120,159.100 140.258,159.390 138.861 C 159.680 137.465,160.116 136.124,160.359 135.881 C 160.601 135.639,160.800 135.159,160.800 134.816 C 160.800 133.162,166.702 123.200,167.682 123.200 C 167.857 123.200,168.000 122.969,168.000 122.687 C 168.000 122.037,172.458 117.600,173.112 117.600 C 173.380 117.600,173.600 117.463,173.600 117.295 C 173.600 116.275,183.463 110.400,185.175 110.400 C 185.424 110.400,186.027 110.150,186.514 109.843 C 187.001 109.537,188.300 109.160,189.400 109.006 C 190.500 108.851,191.587 108.571,191.816 108.383 C 192.470 107.846,199.311 107.494,200.000 107.962 C 200.506 108.306,200.638 110.528,200.840 122.085 C 201.089 136.343,201.495 141.366,202.564 143.400 C 202.911 144.060,203.196 144.982,203.198 145.449 C 203.200 146.430,204.205 148.868,206.473 153.400 C 208.751 157.952,209.334 158.957,209.900 159.320 C 210.175 159.496,210.400 159.826,210.400 160.054 C 210.400 161.549,221.538 172.100,224.800 173.695 C 225.350 173.964,225.904 174.328,226.031 174.504 C 226.334 174.924,232.464 178.000,232.998 178.000 C 233.226 178.000,234.084 178.360,234.904 178.800 C 235.725 179.240,236.854 179.600,237.411 179.600 C 237.969 179.600,239.095 179.886,239.913 180.235 C 241.752 181.019,247.808 181.736,252.600 181.736 C 257.392 181.736,263.448 181.019,265.287 180.235 C 266.105 179.886,267.190 179.600,267.698 179.600 C 268.206 179.600,268.986 179.345,269.431 179.033 C 269.877 178.721,270.900 178.342,271.706 178.191 C 272.512 178.040,273.380 177.665,273.635 177.358 C 273.890 177.051,274.395 176.800,274.758 176.800 C 275.121 176.800,276.314 176.215,277.409 175.500 C 278.504 174.785,279.850 173.976,280.400 173.703 C 281.714 173.050,282.586 172.453,284.346 171.002 C 287.166 168.679,294.800 160.759,294.800 160.157 C 294.800 160.066,295.430 159.095,296.200 158.000 C 296.970 156.905,297.600 155.810,297.600 155.567 C 297.600 155.325,297.960 154.669,298.400 154.109 C 298.840 153.550,299.200 152.792,299.200 152.426 C 299.200 152.060,299.403 151.557,299.652 151.308 C 300.173 150.787,301.506 147.252,301.954 145.200 C 302.122 144.430,302.458 143.431,302.701 142.980 C 304.259 140.085,305.203 97.950,303.746 96.340 C 303.165 95.698,288.657 95.095,288.349 95.700 C 288.321 95.755,288.186 99.346,288.049 103.680 C 287.876 109.160,287.648 111.713,287.300 112.060 C 287.025 112.335,286.800 113.112,286.800 113.786 C 286.800 114.460,286.468 115.639,286.061 116.406 C 285.655 117.173,285.202 118.295,285.054 118.900 C 284.906 119.505,284.608 120.000,284.392 120.000 C 284.177 120.000,284.000 120.360,284.000 120.800 C 284.000 121.240,283.640 121.960,283.200 122.400 C 282.760 122.840,282.400 123.341,282.400 123.513 C 282.400 125.306,271.018 135.600,269.036 135.600 C 268.740 135.600,268.283 135.858,268.021 136.174 C 267.759 136.490,267.005 136.867,266.345 137.012 C 265.686 137.157,264.663 137.527,264.073 137.835 C 263.483 138.143,262.528 138.396,261.950 138.398 C 261.373 138.399,260.113 138.694,259.150 139.054 C 256.737 139.955,248.590 139.955,245.800 139.054 C 244.700 138.699,243.345 138.407,242.789 138.404 C 242.233 138.402,241.423 138.153,240.989 137.851 C 240.555 137.549,239.627 137.178,238.928 137.025 C 238.228 136.873,237.441 136.490,237.179 136.174 C 236.917 135.858,236.460 135.600,236.164 135.600 C 235.530 135.600,230.746 132.429,230.280 131.701 C 230.104 131.425,229.793 131.200,229.588 131.200 C 228.516 131.200,221.200 122.234,221.200 120.920 C 221.200 120.688,220.930 120.274,220.600 120.000 C 220.270 119.726,219.999 119.209,219.998 118.851 C 219.996 118.493,219.736 117.704,219.420 117.098 C 217.768 113.930,216.851 108.144,216.821 100.700 L 216.800 95.600 181.900 95.625 C 162.705 95.639,146.640 95.797,146.200 95.975 " stroke="none" fill="#fafbfa" fill-rule="evenodd"></path><path id="path1" d="M39.600 200.000 L 39.600 360.400 200.000 360.400 L 360.400 360.400 360.400 200.000 L 360.400 39.600 200.000 39.600 L 39.600 39.600 39.600 200.000 M217.748 95.700 C 217.881 96.195,217.992 98.884,217.995 101.676 C 217.998 104.468,218.161 106.852,218.358 106.974 C 218.555 107.096,218.842 108.682,218.996 110.498 C 219.150 112.314,219.528 114.199,219.838 114.686 C 220.147 115.173,220.400 115.841,220.400 116.169 C 220.400 119.074,230.405 132.000,232.654 132.000 C 232.968 132.000,233.329 132.270,233.455 132.600 C 233.582 132.930,233.912 133.200,234.189 133.200 C 234.466 133.200,235.150 133.560,235.709 134.000 C 236.269 134.440,236.989 134.800,237.309 134.800 C 237.630 134.800,238.350 135.160,238.909 135.600 C 239.469 136.040,240.320 136.400,240.801 136.400 C 241.283 136.400,242.154 136.655,242.738 136.968 C 245.590 138.492,260.769 138.455,262.329 136.920 C 262.619 136.634,263.304 136.400,263.849 136.400 C 264.698 136.400,266.252 135.750,268.800 134.329 C 269.130 134.145,269.850 133.774,270.400 133.506 C 270.950 133.237,271.544 132.788,271.720 132.508 C 271.896 132.229,272.211 132.000,272.420 132.000 C 273.377 132.000,279.955 125.418,280.516 123.900 C 280.659 123.515,280.961 123.200,281.187 123.200 C 281.414 123.200,281.600 123.003,281.600 122.763 C 281.600 122.523,281.960 121.869,282.400 121.309 C 282.840 120.750,283.200 119.978,283.200 119.595 C 283.200 119.212,283.451 118.690,283.758 118.435 C 284.065 118.180,284.430 117.366,284.569 116.626 C 284.708 115.886,285.066 114.767,285.365 114.140 C 285.664 113.513,286.029 111.740,286.176 110.200 C 286.322 108.660,286.612 107.229,286.821 107.020 C 287.029 106.811,287.202 104.381,287.205 101.620 C 287.214 94.012,286.148 94.800,296.429 94.800 L 305.164 94.800 305.409 96.105 C 306.030 99.415,305.390 138.146,304.684 139.950 C 304.308 140.913,304.000 142.385,304.000 143.222 C 304.000 144.058,303.761 144.982,303.468 145.275 C 303.175 145.567,302.823 146.503,302.685 147.353 C 302.547 148.203,302.157 149.206,301.817 149.581 C 301.478 149.956,301.200 150.641,301.200 151.103 C 301.200 151.565,300.930 152.213,300.600 152.543 C 300.270 152.873,300.000 153.401,300.000 153.717 C 300.000 154.034,299.678 154.721,299.284 155.246 C 298.890 155.771,298.352 156.650,298.087 157.200 C 297.341 158.750,296.647 159.770,296.100 160.120 C 295.825 160.296,295.600 160.631,295.600 160.864 C 295.600 162.148,284.695 173.200,283.428 173.200 C 283.137 173.200,280.917 174.726,280.082 175.500 C 279.786 175.775,279.359 176.000,279.135 176.000 C 278.910 176.000,278.269 176.360,277.709 176.800 C 277.150 177.240,276.434 177.600,276.117 177.600 C 275.801 177.600,275.273 177.870,274.943 178.200 C 274.613 178.530,273.965 178.800,273.503 178.800 C 273.041 178.800,272.348 179.085,271.963 179.434 C 271.577 179.783,270.486 180.172,269.537 180.299 C 268.589 180.426,267.590 180.753,267.318 181.025 C 267.047 181.296,265.694 181.647,264.312 181.804 C 262.930 181.961,261.547 182.294,261.238 182.545 C 260.463 183.173,244.087 183.182,243.685 182.554 C 243.528 182.309,242.320 181.979,241.000 181.822 C 239.680 181.664,238.201 181.280,237.714 180.968 C 237.227 180.655,236.306 180.400,235.668 180.400 C 235.030 180.400,234.050 180.040,233.491 179.600 C 232.931 179.160,232.018 178.800,231.461 178.800 C 230.903 178.800,230.331 178.612,230.190 178.383 C 230.048 178.154,229.227 177.684,228.366 177.340 C 227.505 176.995,226.800 176.553,226.800 176.357 C 226.800 176.160,226.468 176.000,226.062 176.000 C 225.656 176.000,224.998 175.640,224.600 175.200 C 224.202 174.760,223.653 174.400,223.381 174.400 C 223.108 174.400,222.782 174.130,222.655 173.800 C 222.529 173.470,222.177 173.200,221.875 173.200 C 221.572 173.200,220.998 172.840,220.600 172.400 C 220.202 171.960,219.723 171.600,219.535 171.600 C 218.683 171.600,209.600 161.760,209.600 160.837 C 209.600 160.597,209.416 160.400,209.190 160.400 C 208.965 160.400,208.595 159.995,208.370 159.500 C 208.144 159.005,207.519 157.880,206.982 157.000 C 206.445 156.120,205.732 154.860,205.397 154.200 C 205.062 153.540,204.637 152.730,204.453 152.400 C 203.532 150.753,202.776 148.860,202.537 147.600 C 202.391 146.830,202.048 145.840,201.774 145.400 C 201.500 144.960,201.149 143.610,200.993 142.400 C 200.838 141.190,200.506 139.948,200.255 139.639 C 199.939 139.249,199.763 134.619,199.678 124.439 C 199.611 116.388,199.396 109.640,199.202 109.444 C 198.722 108.961,190.140 109.921,188.540 110.636 C 187.846 110.946,186.991 111.200,186.638 111.200 C 186.286 111.200,185.325 111.560,184.504 112.000 C 183.684 112.440,182.768 112.800,182.469 112.800 C 182.170 112.800,181.469 113.160,180.909 113.600 C 180.350 114.040,179.661 114.400,179.379 114.400 C 179.097 114.400,178.807 114.543,178.733 114.718 C 178.660 114.893,177.655 115.644,176.500 116.386 C 175.345 117.128,174.400 117.884,174.400 118.067 C 174.400 118.250,174.220 118.400,174.000 118.400 C 173.780 118.400,172.520 119.480,171.200 120.800 C 169.880 122.120,168.800 123.380,168.800 123.600 C 168.800 123.820,168.650 124.000,168.467 124.000 C 168.284 124.000,167.526 124.945,166.783 126.100 C 166.040 127.255,165.199 128.438,164.916 128.729 C 164.632 129.019,164.400 129.610,164.400 130.041 C 164.400 130.472,164.148 130.922,163.839 131.040 C 163.531 131.159,163.161 131.882,163.017 132.649 C 162.873 133.415,162.496 134.142,162.178 134.264 C 161.819 134.401,161.600 135.043,161.600 135.954 C 161.600 136.761,161.312 137.833,160.961 138.334 C 159.305 140.698,159.307 158.251,160.964 161.400 C 161.311 162.060,161.596 163.001,161.598 163.490 C 161.599 163.980,161.959 164.970,162.399 165.690 C 162.838 166.411,163.198 167.296,163.199 167.657 C 163.199 168.019,163.470 168.418,163.800 168.545 C 164.130 168.671,164.400 169.191,164.400 169.699 C 164.400 170.207,164.760 170.930,165.200 171.307 C 165.640 171.684,166.000 172.245,166.000 172.553 C 166.000 172.862,166.270 173.218,166.600 173.345 C 166.930 173.471,167.200 173.821,167.200 174.123 C 167.200 174.424,168.685 176.146,170.500 177.950 C 174.869 182.291,174.992 182.400,175.534 182.400 C 175.790 182.400,176.000 182.584,176.000 182.809 C 176.000 183.033,176.495 183.435,177.100 183.700 C 177.705 183.966,178.344 184.412,178.520 184.692 C 178.696 184.971,179.077 185.200,179.366 185.200 C 179.655 185.200,180.321 185.533,180.846 185.939 C 181.371 186.345,182.295 186.799,182.900 186.947 C 183.505 187.094,184.000 187.392,184.000 187.608 C 184.000 187.823,184.405 188.006,184.900 188.014 C 185.395 188.021,186.520 188.375,187.400 188.800 C 188.280 189.225,189.783 189.579,190.740 189.586 C 191.696 189.594,193.046 189.864,193.740 190.186 C 194.605 190.588,197.546 190.892,203.125 191.158 C 207.595 191.370,211.465 191.713,211.725 191.920 C 211.986 192.126,215.763 192.393,220.118 192.513 C 224.492 192.634,228.253 192.912,228.521 193.134 C 228.788 193.356,232.725 193.717,237.270 193.937 C 241.815 194.156,245.863 194.507,246.267 194.715 C 246.670 194.923,249.844 195.193,253.319 195.314 C 257.168 195.447,259.854 195.713,260.191 195.993 C 260.496 196.245,261.792 196.558,263.072 196.686 C 264.353 196.815,266.027 197.254,266.794 197.660 C 267.561 198.067,268.574 198.400,269.045 198.400 C 269.516 198.400,270.126 198.670,270.400 199.000 C 270.674 199.330,271.221 199.600,271.616 199.600 C 272.307 199.600,276.389 201.467,276.800 201.971 C 276.910 202.106,277.450 202.446,278.000 202.728 C 280.419 203.965,281.200 204.465,281.200 204.778 C 281.200 204.963,281.606 205.215,282.102 205.340 C 282.598 205.464,283.633 206.198,284.402 206.970 C 285.171 207.743,286.025 208.380,286.300 208.387 C 286.575 208.394,286.800 208.670,286.800 209.000 C 286.800 209.330,286.951 209.600,287.136 209.600 C 287.511 209.600,291.200 212.995,291.200 213.340 C 291.200 213.461,292.105 214.514,293.212 215.680 C 294.318 216.846,295.324 218.192,295.448 218.671 C 295.571 219.150,295.926 219.639,296.236 219.759 C 296.546 219.878,296.800 220.223,296.800 220.525 C 296.800 220.828,297.160 221.402,297.600 221.800 C 298.040 222.198,298.400 222.841,298.400 223.229 C 298.400 223.616,298.551 223.993,298.737 224.067 C 299.233 224.263,301.200 228.349,301.200 229.184 C 301.200 229.579,301.465 230.122,301.789 230.391 C 302.114 230.660,302.484 231.537,302.613 232.340 C 302.742 233.143,303.107 234.278,303.424 234.862 C 303.741 235.446,304.000 236.757,304.000 237.776 C 304.000 238.866,304.288 240.068,304.700 240.696 C 305.313 241.632,305.400 242.858,305.400 250.582 C 305.400 258.337,305.316 259.519,304.700 260.389 C 304.279 260.984,304.000 262.109,304.000 263.213 C 304.000 264.222,303.736 265.396,303.413 265.824 C 303.090 266.251,302.820 266.967,302.813 267.415 C 302.806 267.864,302.450 268.916,302.023 269.754 C 301.596 270.592,301.132 271.801,300.991 272.439 C 300.851 273.078,300.585 273.600,300.400 273.600 C 300.215 273.600,299.948 274.128,299.806 274.772 C 299.664 275.417,299.290 276.159,298.974 276.421 C 298.658 276.683,298.400 277.091,298.400 277.327 C 298.400 277.818,296.355 280.931,295.900 281.133 C 295.735 281.207,295.598 281.477,295.595 281.733 C 295.589 282.253,294.459 283.750,292.500 285.832 C 291.785 286.593,291.200 287.297,291.200 287.397 C 291.200 287.635,287.635 291.200,287.397 291.200 C 287.297 291.200,286.593 291.785,285.832 292.500 C 283.713 294.494,282.251 295.589,281.700 295.595 C 281.425 295.598,281.200 295.751,281.200 295.936 C 281.200 296.120,280.795 296.489,280.300 296.755 C 279.805 297.021,278.680 297.670,277.800 298.198 C 274.752 300.024,272.331 301.200,271.616 301.200 C 271.221 301.200,270.686 301.456,270.426 301.769 C 270.166 302.082,269.199 302.464,268.277 302.619 C 267.355 302.774,266.245 303.148,265.811 303.450 C 265.377 303.753,264.131 304.000,263.042 304.000 C 261.719 304.000,260.807 304.232,260.290 304.700 C 259.517 305.399,185.963 306.079,183.304 305.412 C 182.415 305.188,182.400 305.084,182.400 299.081 C 182.400 294.548,182.258 292.775,181.849 292.189 C 181.546 291.755,181.165 290.060,181.001 288.423 C 180.837 286.786,180.455 285.198,180.152 284.895 C 179.848 284.591,179.600 283.916,179.600 283.395 C 179.600 282.874,179.420 282.336,179.201 282.200 C 178.981 282.065,178.321 280.929,177.733 279.677 C 175.951 275.881,168.895 268.000,167.277 268.000 C 167.036 268.000,166.696 267.771,166.520 267.492 C 166.344 267.212,165.750 266.763,165.200 266.494 C 164.650 266.226,163.930 265.846,163.600 265.650 C 162.092 264.757,159.240 263.600,158.545 263.600 C 158.123 263.600,157.356 263.304,156.840 262.943 C 155.508 262.010,139.845 261.975,138.362 262.901 C 137.833 263.232,136.805 263.612,136.077 263.746 C 135.349 263.880,134.481 264.262,134.148 264.595 C 133.815 264.928,133.179 265.200,132.735 265.200 C 132.290 265.200,131.469 265.560,130.909 266.000 C 130.350 266.440,129.666 266.800,129.389 266.800 C 129.112 266.800,128.782 267.070,128.655 267.400 C 128.529 267.730,128.194 268.000,127.912 268.000 C 126.955 268.000,118.400 277.192,118.400 278.219 C 118.400 278.471,118.040 279.002,117.600 279.400 C 117.160 279.798,116.794 280.411,116.787 280.762 C 116.780 281.113,116.510 281.749,116.187 282.176 C 115.864 282.604,115.600 283.328,115.600 283.787 C 115.600 284.246,115.334 285.001,115.010 285.465 C 114.202 286.617,113.607 292.294,113.603 298.877 C 113.599 306.048,114.223 305.602,104.211 305.595 C 100.025 305.592,96.195 305.481,95.700 305.348 L 94.800 305.107 94.818 284.053 C 94.832 266.762,94.938 262.714,95.412 261.400 C 95.729 260.520,95.992 259.170,95.996 258.400 C 96.001 257.630,96.267 256.497,96.588 255.883 C 96.908 255.269,97.290 254.099,97.436 253.283 C 97.582 252.467,97.926 251.530,98.200 251.200 C 98.474 250.870,98.820 249.925,98.967 249.100 C 99.115 248.275,99.390 247.600,99.579 247.600 C 99.768 247.600,100.114 247.050,100.348 246.377 C 100.583 245.704,101.320 244.345,101.987 243.357 C 102.654 242.369,103.200 241.417,103.200 241.242 C 103.200 241.067,103.560 240.598,104.000 240.200 C 104.440 239.802,104.800 239.305,104.800 239.096 C 104.800 238.218,114.152 228.400,114.988 228.400 C 115.227 228.400,115.730 228.040,116.107 227.600 C 116.484 227.160,117.064 226.800,117.396 226.800 C 117.728 226.800,118.000 226.652,118.000 226.471 C 118.000 226.021,121.137 224.000,121.836 224.000 C 122.146 224.000,122.400 223.834,122.400 223.631 C 122.400 223.428,123.030 223.054,123.800 222.800 C 124.570 222.546,125.200 222.174,125.200 221.974 C 125.200 221.773,125.917 221.495,126.792 221.355 C 127.668 221.215,128.586 220.857,128.833 220.561 C 129.079 220.264,129.937 219.911,130.740 219.775 C 131.543 219.640,132.767 219.276,133.460 218.965 C 134.154 218.654,135.374 218.400,136.173 218.400 C 136.972 218.400,138.295 218.101,139.113 217.735 C 141.659 216.597,152.035 216.483,155.360 217.558 C 156.794 218.021,158.712 218.400,159.622 218.400 C 160.532 218.400,161.754 218.659,162.338 218.976 C 162.922 219.293,164.057 219.658,164.860 219.787 C 165.663 219.916,166.540 220.286,166.809 220.611 C 167.078 220.935,167.621 221.200,168.016 221.200 C 168.851 221.200,172.937 223.167,173.133 223.663 C 173.207 223.849,173.467 224.000,173.712 224.000 C 174.213 224.000,177.328 226.037,177.533 226.500 C 177.607 226.665,177.852 226.800,178.078 226.800 C 178.749 226.800,182.374 229.920,185.800 233.447 C 189.320 237.070,189.287 237.030,191.000 239.600 C 191.660 240.590,192.425 241.638,192.700 241.929 C 192.975 242.219,193.200 242.716,193.200 243.032 C 193.200 243.349,193.560 243.916,194.000 244.293 C 194.440 244.670,194.800 245.369,194.800 245.846 C 194.800 246.324,195.053 246.812,195.362 246.930 C 195.672 247.049,196.055 247.743,196.213 248.473 C 196.372 249.203,196.749 250.155,197.051 250.589 C 197.353 251.023,197.600 251.750,197.600 252.204 C 197.600 252.659,197.960 253.737,198.400 254.600 C 198.840 255.463,199.200 256.815,199.200 257.605 C 199.200 258.394,199.425 259.265,199.700 259.540 C 200.079 259.918,200.228 263.858,200.317 275.820 L 200.435 291.600 201.737 291.600 C 202.454 291.600,203.211 291.435,203.420 291.234 C 203.629 291.033,205.489 290.667,207.553 290.420 C 209.618 290.173,211.683 289.707,212.142 289.385 C 212.602 289.063,213.574 288.800,214.302 288.800 C 215.109 288.800,215.715 288.566,215.855 288.200 C 215.982 287.870,216.492 287.600,216.989 287.600 C 217.486 287.600,218.350 287.240,218.909 286.800 C 219.469 286.360,220.218 286.000,220.576 286.000 C 220.933 286.000,221.322 285.746,221.441 285.437 C 221.560 285.127,222.185 284.655,222.829 284.388 C 223.473 284.121,224.000 283.745,224.000 283.551 C 224.000 283.358,224.196 283.200,224.434 283.200 C 225.142 283.200,230.770 277.822,232.000 275.971 C 232.330 275.474,232.915 274.738,233.300 274.334 C 233.685 273.930,234.000 273.448,234.000 273.262 C 234.000 273.076,234.360 272.598,234.800 272.200 C 235.240 271.802,235.600 271.217,235.600 270.901 C 235.600 270.585,235.960 269.869,236.400 269.309 C 236.840 268.750,237.200 267.978,237.200 267.595 C 237.200 267.212,237.447 266.693,237.748 266.443 C 238.050 266.193,238.394 265.257,238.514 264.363 C 238.634 263.469,239.017 262.423,239.366 262.037 C 239.774 261.586,240.006 260.566,240.018 259.169 C 240.027 257.976,240.295 256.280,240.612 255.400 C 241.288 253.522,241.414 246.374,240.782 245.742 C 240.552 245.512,240.259 243.991,240.131 242.362 C 239.988 240.538,239.611 238.921,239.149 238.153 C 238.737 237.467,238.400 236.454,238.400 235.902 C 238.400 235.350,238.130 234.674,237.800 234.400 C 237.470 234.126,237.200 233.588,237.200 233.205 C 237.200 232.822,236.840 232.050,236.400 231.491 C 235.960 230.931,235.600 230.215,235.600 229.899 C 235.600 229.583,235.240 228.998,234.800 228.600 C 234.360 228.202,233.998 227.679,233.996 227.438 C 233.986 226.426,225.475 217.600,224.508 217.600 C 224.229 217.600,224.000 217.411,224.000 217.179 C 224.000 216.948,223.474 216.575,222.832 216.351 C 222.190 216.127,221.565 215.687,221.445 215.372 C 221.324 215.057,220.933 214.800,220.576 214.800 C 220.218 214.800,219.469 214.440,218.909 214.000 C 218.350 213.560,217.578 213.200,217.195 213.200 C 216.812 213.200,216.274 212.930,216.000 212.600 C 215.726 212.270,215.024 212.000,214.440 212.000 C 213.856 212.000,213.011 211.743,212.563 211.429 C 212.115 211.115,210.231 210.651,208.376 210.397 C 206.521 210.143,204.823 209.792,204.602 209.617 C 204.381 209.442,200.510 209.170,196.000 209.012 C 190.948 208.836,187.591 208.554,187.256 208.277 C 186.920 208.000,183.603 207.723,178.602 207.553 C 174.047 207.398,170.133 207.085,169.673 206.839 C 169.222 206.597,167.321 206.400,165.448 206.400 C 161.070 206.400,151.920 205.623,151.400 205.207 C 151.180 205.031,148.547 204.818,145.549 204.734 C 142.322 204.643,139.875 204.396,139.549 204.129 C 139.247 203.880,137.956 203.548,136.680 203.390 C 135.404 203.232,134.138 202.881,133.867 202.610 C 133.596 202.339,132.525 201.990,131.487 201.834 C 130.449 201.678,129.600 201.394,129.600 201.202 C 129.600 201.011,129.195 200.739,128.700 200.599 C 127.115 200.150,123.200 198.238,123.200 197.914 C 123.200 197.741,122.838 197.600,122.396 197.600 C 121.954 197.600,121.284 197.240,120.907 196.800 C 120.530 196.360,119.987 196.000,119.699 196.000 C 119.411 196.000,119.078 195.746,118.959 195.436 C 118.839 195.126,118.350 194.771,117.871 194.647 C 117.392 194.523,116.292 193.786,115.427 193.011 C 114.562 192.235,113.707 191.600,113.527 191.600 C 113.347 191.600,113.200 191.441,113.200 191.247 C 113.200 190.781,110.153 187.744,109.393 187.453 C 109.067 187.328,108.800 187.043,108.800 186.820 C 108.800 186.597,108.215 185.786,107.500 185.019 C 105.676 183.061,105.377 182.680,104.794 181.575 C 104.512 181.039,104.172 180.510,104.040 180.400 C 103.579 180.016,101.981 177.604,101.593 176.706 C 101.378 176.208,101.036 175.530,100.833 175.200 C 99.967 173.793,98.800 171.128,98.800 170.559 C 98.800 170.220,98.555 169.698,98.255 169.398 C 97.956 169.099,97.587 168.082,97.437 167.139 C 97.286 166.196,96.986 165.315,96.771 165.182 C 96.555 165.049,96.278 163.963,96.155 162.770 C 96.032 161.576,95.677 159.921,95.366 159.092 C 94.538 156.885,94.565 143.061,95.400 141.062 C 95.730 140.272,96.001 138.855,96.002 137.913 C 96.004 136.971,96.267 135.697,96.588 135.083 C 96.908 134.469,97.290 133.299,97.436 132.483 C 97.582 131.667,97.928 130.730,98.206 130.400 C 98.484 130.070,98.843 129.180,99.004 128.423 C 99.166 127.665,99.546 126.797,99.849 126.494 C 100.152 126.191,100.400 125.618,100.400 125.220 C 100.400 124.823,100.663 124.280,100.985 124.013 C 101.306 123.746,101.681 123.173,101.819 122.740 C 101.956 122.307,102.818 120.860,103.734 119.524 C 104.650 118.188,105.660 116.714,105.977 116.248 C 107.564 113.919,117.810 104.400,118.730 104.400 C 118.952 104.400,119.193 104.265,119.267 104.100 C 119.474 103.633,121.720 102.143,122.672 101.841 C 123.142 101.691,123.746 101.306,124.013 100.985 C 124.280 100.663,124.823 100.400,125.220 100.400 C 125.618 100.400,126.191 100.152,126.494 99.849 C 126.797 99.546,127.665 99.166,128.423 99.004 C 129.180 98.843,130.070 98.484,130.400 98.206 C 130.730 97.928,131.667 97.582,132.483 97.436 C 133.299 97.290,134.469 96.908,135.083 96.588 C 135.697 96.267,136.944 96.004,137.854 96.002 C 138.764 96.001,140.114 95.737,140.854 95.416 C 142.002 94.917,147.737 94.829,179.853 94.816 L 217.507 94.800 217.748 95.700 " stroke="none" fill="#149c5c" fill-rule="evenodd"></path><path id="path2" d="M158.600 95.094 C 192.121 95.369,217.106 95.372,216.938 95.100 C 216.836 94.935,200.788 94.842,181.276 94.894 C 161.764 94.946,151.560 95.036,158.600 95.094 M288.080 95.280 C 287.816 95.544,287.613 96.039,287.628 96.380 C 287.648 96.808,287.753 96.753,287.968 96.200 C 288.260 95.449,288.754 95.387,296.040 95.187 L 303.800 94.974 296.180 94.887 C 290.685 94.824,288.426 94.934,288.080 95.280 M142.421 95.579 C 142.046 95.816,142.470 95.865,143.621 95.718 C 144.599 95.592,145.475 95.425,145.567 95.345 C 145.942 95.019,142.955 95.240,142.421 95.579 M217.355 101.000 C 217.356 103.860,217.420 104.978,217.497 103.483 C 217.574 101.989,217.574 99.649,217.496 98.283 C 217.418 96.918,217.355 98.140,217.355 101.000 M304.986 115.800 C 304.986 126.800,305.037 131.242,305.100 125.672 C 305.163 120.102,305.162 111.102,305.100 105.672 C 305.037 100.242,304.985 104.800,304.986 115.800 M116.554 106.468 C 114.929 107.691,114.463 108.173,115.400 107.660 C 116.440 107.091,118.272 105.620,117.954 105.609 C 117.819 105.604,117.189 105.991,116.554 106.468 M217.693 108.000 C 217.693 108.770,217.775 109.085,217.876 108.700 C 217.976 108.315,217.976 107.685,217.876 107.300 C 217.775 106.915,217.693 107.230,217.693 108.000 M287.293 108.000 C 287.293 108.770,287.375 109.085,287.476 108.700 C 287.576 108.315,287.576 107.685,287.476 107.300 C 287.375 106.915,287.293 107.230,287.293 108.000 M218.068 110.000 C 218.088 111.039,218.718 112.746,218.732 111.800 C 218.738 111.360,218.589 110.640,218.400 110.200 C 218.189 109.710,218.061 109.632,218.068 110.000 M106.950 115.900 C 105.767 117.525,105.402 118.352,106.377 117.200 C 107.278 116.134,108.119 114.800,107.889 114.800 C 107.813 114.800,107.390 115.295,106.950 115.900 M285.265 115.817 C 284.595 117.288,284.723 117.602,285.447 116.265 C 285.786 115.640,285.988 115.054,285.896 114.963 C 285.805 114.871,285.521 115.256,285.265 115.817 M170.587 120.500 L 168.200 123.000 170.700 120.613 C 173.022 118.395,173.383 118.000,173.087 118.000 C 173.026 118.000,171.901 119.125,170.587 120.500 M280.784 124.423 C 280.305 125.096,279.979 125.713,280.061 125.794 C 280.143 125.876,280.614 125.326,281.108 124.571 C 282.223 122.871,281.971 122.756,280.784 124.423 M224.428 124.984 C 224.945 125.925,226.399 127.682,226.389 127.354 C 226.383 127.159,225.888 126.453,225.289 125.784 C 224.690 125.116,224.303 124.756,224.428 124.984 M163.494 130.103 L 162.788 131.400 163.594 130.456 C 164.280 129.652,164.646 128.794,164.300 128.803 C 164.245 128.804,163.882 129.389,163.494 130.103 M160.715 136.210 C 160.592 136.645,160.369 137.360,160.220 137.800 C 160.071 138.240,160.242 138.094,160.600 137.476 C 160.958 136.858,161.181 136.142,161.095 135.886 C 161.010 135.630,160.839 135.776,160.715 136.210 M248.400 138.800 C 248.950 138.976,249.760 139.120,250.200 139.120 C 250.833 139.120,250.792 139.054,250.000 138.800 C 249.450 138.624,248.640 138.480,248.200 138.480 C 247.567 138.480,247.608 138.546,248.400 138.800 M255.200 138.800 C 254.408 139.054,254.367 139.120,255.000 139.120 C 255.440 139.120,256.250 138.976,256.800 138.800 C 257.592 138.546,257.633 138.480,257.000 138.480 C 256.560 138.480,255.750 138.624,255.200 138.800 M95.449 142.615 C 95.312 142.973,95.223 143.836,95.250 144.533 C 95.292 145.587,95.350 145.498,95.599 144.000 C 95.917 142.086,95.859 141.548,95.449 142.615 M159.246 142.467 C 159.221 142.834,159.096 143.464,158.970 143.867 C 158.752 144.562,158.763 144.563,159.197 143.887 C 159.448 143.496,159.573 142.866,159.473 142.487 C 159.311 141.868,159.288 141.866,159.246 142.467 M94.946 149.800 C 94.947 152.000,95.014 152.849,95.095 151.687 C 95.176 150.524,95.176 148.724,95.093 147.687 C 95.011 146.649,94.945 147.600,94.946 149.800 M95.293 155.200 C 95.293 155.970,95.375 156.285,95.476 155.900 C 95.576 155.515,95.576 154.885,95.476 154.500 C 95.375 154.115,95.293 154.430,95.293 155.200 M160.028 161.400 C 160.028 161.620,160.286 162.250,160.600 162.800 C 160.914 163.350,161.172 163.620,161.172 163.400 C 161.172 163.180,160.914 162.550,160.600 162.000 C 160.286 161.450,160.028 161.180,160.028 161.400 M212.400 164.110 C 212.400 164.171,213.795 165.566,215.500 167.210 L 218.600 170.200 215.610 167.100 C 212.833 164.221,212.400 163.817,212.400 164.110 M102.446 177.196 C 102.939 178.073,103.408 178.726,103.487 178.646 C 103.659 178.474,102.006 175.600,101.735 175.600 C 101.633 175.600,101.952 176.318,102.446 177.196 M104.839 180.800 C 105.563 181.790,106.210 182.675,106.277 182.767 C 106.345 182.858,106.397 182.768,106.394 182.567 C 106.391 182.365,105.744 181.480,104.956 180.600 L 103.524 179.000 104.839 180.800 M199.507 191.490 C 200.226 191.579,201.306 191.577,201.907 191.486 C 202.508 191.395,201.920 191.322,200.600 191.324 C 199.280 191.326,198.788 191.401,199.507 191.490 M204.105 191.887 C 204.714 191.979,205.614 191.977,206.105 191.882 C 206.597 191.787,206.100 191.711,205.000 191.714 C 203.900 191.717,203.497 191.795,204.105 191.887 M222.705 193.483 C 223.202 193.579,223.922 193.575,224.305 193.475 C 224.687 193.375,224.280 193.296,223.400 193.301 C 222.520 193.305,222.207 193.387,222.705 193.483 M226.105 193.887 C 226.714 193.979,227.614 193.977,228.105 193.882 C 228.597 193.787,228.100 193.711,227.000 193.714 C 225.900 193.717,225.497 193.795,226.105 193.887 M231.107 194.290 C 231.826 194.379,232.906 194.377,233.507 194.286 C 234.108 194.195,233.520 194.122,232.200 194.124 C 230.880 194.126,230.388 194.201,231.107 194.290 M238.505 194.687 C 239.114 194.779,240.014 194.777,240.505 194.682 C 240.997 194.587,240.500 194.511,239.400 194.514 C 238.300 194.517,237.897 194.595,238.505 194.687 M244.300 195.482 C 244.795 195.578,245.605 195.578,246.100 195.482 C 246.595 195.387,246.190 195.309,245.200 195.309 C 244.210 195.309,243.805 195.387,244.300 195.482 M251.633 195.744 C 251.725 195.824,253.420 195.985,255.400 196.103 C 257.848 196.249,258.488 196.210,257.400 195.982 C 255.820 195.650,251.310 195.465,251.633 195.744 M130.000 200.800 C 130.770 201.222,131.580 201.566,131.800 201.566 C 132.020 201.566,131.570 201.222,130.800 200.800 C 130.030 200.378,129.220 200.034,129.000 200.034 C 128.780 200.034,129.230 200.378,130.000 200.800 M157.305 205.487 C 157.914 205.579,158.814 205.577,159.305 205.482 C 159.797 205.387,159.300 205.311,158.200 205.314 C 157.100 205.317,156.697 205.395,157.305 205.487 M161.700 205.887 C 162.305 205.978,163.295 205.978,163.900 205.887 C 164.505 205.795,164.010 205.720,162.800 205.720 C 161.590 205.720,161.095 205.795,161.700 205.887 M169.500 206.282 C 169.995 206.378,170.805 206.378,171.300 206.282 C 171.795 206.187,171.390 206.109,170.400 206.109 C 169.410 206.109,169.005 206.187,169.500 206.282 M174.000 206.793 C 174.988 207.116,178.289 207.335,177.967 207.056 C 177.875 206.976,176.720 206.811,175.400 206.688 C 173.909 206.549,173.379 206.589,174.000 206.793 M183.700 207.487 C 184.305 207.578,185.295 207.578,185.900 207.487 C 186.505 207.395,186.010 207.320,184.800 207.320 C 183.590 207.320,183.095 207.395,183.700 207.487 M188.505 207.887 C 189.114 207.979,190.014 207.977,190.505 207.882 C 190.997 207.787,190.500 207.711,189.400 207.714 C 188.300 207.717,187.897 207.795,188.505 207.887 M192.300 208.282 C 192.795 208.378,193.605 208.378,194.100 208.282 C 194.595 208.187,194.190 208.109,193.200 208.109 C 192.210 208.109,191.805 208.187,192.300 208.282 M196.307 208.690 C 197.026 208.779,198.106 208.777,198.707 208.686 C 199.308 208.595,198.720 208.522,197.400 208.524 C 196.080 208.526,195.588 208.601,196.307 208.690 M146.707 217.490 C 147.426 217.579,148.506 217.577,149.107 217.486 C 149.708 217.395,149.120 217.322,147.800 217.324 C 146.480 217.326,145.988 217.401,146.707 217.490 M142.505 217.887 C 143.114 217.979,144.014 217.977,144.505 217.882 C 144.997 217.787,144.500 217.711,143.400 217.714 C 142.300 217.717,141.897 217.795,142.505 217.887 M151.505 217.883 C 152.002 217.979,152.722 217.975,153.105 217.875 C 153.487 217.775,153.080 217.696,152.200 217.701 C 151.320 217.705,151.007 217.787,151.505 217.883 M228.088 219.813 C 228.686 220.443,229.247 220.877,229.335 220.779 C 229.423 220.680,228.933 220.165,228.247 219.634 L 227.000 218.669 228.088 219.813 M231.174 223.100 C 232.137 224.255,233.002 225.200,233.096 225.200 C 233.368 225.200,230.904 222.182,230.126 221.562 C 229.739 221.253,230.210 221.945,231.174 223.100 M121.144 224.824 L 120.200 225.647 121.400 224.945 C 122.979 224.020,123.003 224.000,122.511 224.000 C 122.279 224.000,121.664 224.371,121.144 224.824 M235.600 229.089 C 235.600 229.321,235.971 229.936,236.424 230.456 L 237.247 231.400 236.545 230.200 C 235.620 228.621,235.600 228.597,235.600 229.089 M186.800 235.400 C 187.546 236.170,188.247 236.800,188.357 236.800 C 188.467 236.800,187.946 236.170,187.200 235.400 C 186.454 234.630,185.753 234.000,185.643 234.000 C 185.533 234.000,186.054 234.630,186.800 235.400 M304.957 250.400 C 304.957 253.370,305.020 254.585,305.097 253.100 C 305.174 251.615,305.174 249.185,305.097 247.700 C 305.020 246.215,304.957 247.430,304.957 250.400 M196.028 250.200 C 196.028 250.420,196.286 251.050,196.600 251.600 C 196.914 252.150,197.172 252.420,197.172 252.200 C 197.172 251.980,196.914 251.350,196.600 250.800 C 196.286 250.250,196.028 249.980,196.028 250.200 M199.268 261.400 C 199.262 261.840,199.411 262.560,199.600 263.000 C 200.038 264.019,200.038 262.968,199.600 261.600 C 199.343 260.796,199.277 260.757,199.268 261.400 M143.900 261.482 C 144.395 261.578,145.205 261.578,145.700 261.482 C 146.195 261.387,145.790 261.309,144.800 261.309 C 143.810 261.309,143.405 261.387,143.900 261.482 M149.905 261.483 C 150.402 261.579,151.122 261.575,151.505 261.475 C 151.887 261.375,151.480 261.296,150.600 261.301 C 149.720 261.305,149.407 261.387,149.905 261.483 M95.449 263.415 C 95.312 263.773,95.224 264.726,95.253 265.533 C 95.301 266.844,95.338 266.787,95.595 265.000 C 95.903 262.871,95.855 262.358,95.449 263.415 M127.000 267.844 L 125.400 269.276 127.100 268.004 C 128.563 266.910,129.091 266.383,128.700 266.406 C 128.645 266.409,127.880 267.056,127.000 267.844 M94.984 285.600 C 94.984 295.610,95.036 299.705,95.100 294.700 C 95.163 289.695,95.163 281.505,95.100 276.500 C 95.036 271.495,94.984 275.590,94.984 285.600 M200.177 279.800 C 200.177 286.400,200.232 289.156,200.299 285.925 C 200.366 282.693,200.366 277.293,200.299 273.925 C 200.232 270.556,200.177 273.200,200.177 279.800 M122.786 271.500 L 120.600 273.800 122.900 271.614 C 125.037 269.582,125.383 269.200,125.086 269.200 C 125.024 269.200,123.989 270.235,122.786 271.500 M227.970 281.100 L 227.000 282.200 228.200 281.200 C 228.860 280.650,229.475 280.155,229.567 280.100 C 229.658 280.045,229.555 280.000,229.336 280.000 C 229.118 280.000,228.503 280.495,227.970 281.100 M212.400 289.800 C 211.094 290.547,211.551 290.555,213.254 289.816 C 213.994 289.494,214.330 289.231,214.000 289.230 C 213.670 289.229,212.950 289.486,212.400 289.800 M182.559 297.600 C 182.559 300.790,182.621 302.095,182.697 300.500 C 182.773 298.905,182.773 296.295,182.697 294.700 C 182.621 293.105,182.559 294.410,182.559 297.600 M112.394 298.600 L 112.200 304.600 104.000 304.813 L 95.800 305.025 103.851 305.113 C 113.660 305.219,112.858 305.832,112.705 298.345 L 112.587 292.600 112.394 298.600 M183.142 304.902 C 183.308 305.068,199.814 305.158,219.822 305.102 L 256.200 305.000 219.520 304.800 C 199.346 304.690,182.976 304.736,183.142 304.902 " stroke="none" fill="#74c49c" fill-rule="evenodd"></path><path id="path3" d="M144.000 95.631 C 143.010 95.814,141.026 96.130,139.591 96.333 C 138.157 96.536,135.997 97.026,134.791 97.423 C 131.060 98.650,127.418 100.065,127.020 100.441 C 126.811 100.638,126.409 100.800,126.128 100.800 C 125.846 100.800,124.631 101.430,123.427 102.200 C 122.223 102.970,121.132 103.600,121.003 103.600 C 120.676 103.600,118.519 105.182,117.048 106.500 C 116.374 107.105,115.666 107.600,115.476 107.600 C 114.943 107.600,108.422 114.070,107.816 115.200 C 107.522 115.750,106.857 116.666,106.340 117.236 C 105.179 118.516,103.600 120.686,103.600 121.003 C 103.600 121.132,102.970 122.223,102.200 123.427 C 101.430 124.631,100.800 125.846,100.800 126.128 C 100.800 126.409,100.638 126.811,100.441 127.020 C 99.495 128.020,96.544 137.120,96.231 140.000 C 96.099 141.210,95.824 143.100,95.620 144.200 C 94.295 151.323,96.265 163.631,100.044 171.844 C 100.460 172.748,100.800 173.599,100.800 173.736 C 100.800 173.873,101.430 174.969,102.200 176.173 C 102.970 177.377,103.600 178.475,103.600 178.613 C 103.600 178.752,104.230 179.634,105.000 180.574 C 105.770 181.514,106.400 182.498,106.400 182.763 C 106.400 183.732,115.449 192.265,119.000 194.645 C 123.129 197.412,131.558 201.600,132.997 201.600 C 133.314 201.600,134.164 201.855,134.886 202.168 C 136.959 203.063,142.966 204.070,148.200 204.399 C 155.560 204.862,168.395 205.947,174.400 206.614 C 177.370 206.944,181.060 207.212,182.600 207.211 C 184.140 207.210,187.920 207.477,191.000 207.806 C 194.080 208.134,198.670 208.508,201.200 208.637 C 203.730 208.766,206.409 209.058,207.153 209.285 C 207.898 209.512,209.518 209.924,210.753 210.202 C 231.182 214.788,245.935 238.736,240.813 259.000 C 238.258 269.110,233.436 277.110,226.719 282.383 C 223.357 285.023,220.605 286.830,218.800 287.583 C 218.250 287.813,217.509 288.167,217.153 288.371 C 214.466 289.908,204.920 292.153,202.000 291.935 L 200.200 291.800 199.972 277.400 C 199.738 262.582,199.404 259.371,197.576 254.400 C 195.158 247.823,194.034 245.438,191.704 241.939 C 191.097 241.027,190.420 239.992,190.200 239.640 C 187.376 235.121,179.691 228.147,173.800 224.756 C 170.767 223.011,164.940 220.400,164.077 220.400 C 162.953 220.400,164.844 221.497,166.506 221.809 C 167.312 221.960,168.180 222.335,168.435 222.642 C 168.690 222.949,169.129 223.200,169.412 223.200 C 170.164 223.200,174.000 225.254,174.000 225.657 C 174.000 225.846,174.215 226.000,174.478 226.000 C 174.883 226.000,177.772 227.767,178.400 228.399 C 178.510 228.509,179.676 229.500,180.991 230.600 C 185.189 234.111,191.200 240.943,191.200 242.202 C 191.200 242.291,191.666 243.047,192.235 243.882 C 193.381 245.563,195.600 250.123,195.600 250.797 C 195.600 251.034,195.850 251.627,196.155 252.114 C 196.460 252.601,196.837 253.720,196.991 254.600 C 197.145 255.480,197.460 256.428,197.689 256.706 C 197.919 256.984,198.260 258.514,198.446 260.106 C 198.632 261.698,198.957 263.900,199.168 265.000 C 199.380 266.100,199.566 272.490,199.582 279.200 C 199.599 285.910,199.771 291.650,199.964 291.956 C 200.380 292.613,208.009 292.408,208.885 291.716 C 209.168 291.492,210.163 291.193,211.094 291.051 C 212.663 290.811,213.894 290.377,217.000 288.966 C 217.660 288.666,218.650 288.235,219.200 288.006 C 224.574 285.777,233.472 277.499,236.400 272.004 C 236.730 271.384,237.495 269.945,238.100 268.806 C 238.705 267.667,239.200 266.429,239.200 266.056 C 239.200 265.683,239.455 265.014,239.767 264.569 C 240.079 264.123,240.453 263.048,240.599 262.180 C 240.744 261.311,241.119 259.921,241.432 259.092 C 242.228 256.979,242.231 243.931,241.436 241.514 C 241.127 240.571,240.749 239.170,240.597 238.400 C 240.446 237.630,240.069 236.601,239.761 236.114 C 239.452 235.627,239.200 234.944,239.200 234.598 C 239.200 230.510,227.879 217.305,221.478 213.926 C 216.679 211.392,213.696 210.153,211.546 209.798 C 210.586 209.639,209.583 209.334,209.317 209.120 C 209.051 208.906,206.171 208.567,202.917 208.367 C 199.663 208.168,196.370 207.832,195.600 207.621 C 194.830 207.411,191.590 207.135,188.400 207.008 C 185.210 206.881,180.530 206.527,178.000 206.222 C 175.470 205.916,170.756 205.555,167.525 205.421 C 164.293 205.286,161.143 205.006,160.525 204.799 C 159.906 204.592,155.925 204.242,151.677 204.021 C 147.429 203.800,143.790 203.517,143.589 203.393 C 143.388 203.269,141.824 203.008,140.112 202.812 C 138.400 202.617,136.460 202.175,135.800 201.831 C 135.140 201.487,134.240 201.203,133.800 201.200 C 133.360 201.197,132.484 200.926,131.854 200.598 C 131.224 200.269,130.526 200.000,130.303 200.000 C 129.499 200.000,120.833 195.482,119.562 194.400 C 118.569 193.555,118.025 193.152,116.179 191.900 C 114.323 190.641,109.112 185.373,107.375 183.000 C 106.731 182.120,106.114 181.310,106.002 181.200 C 105.429 180.633,104.000 178.381,104.000 178.045 C 104.000 177.832,103.773 177.419,103.495 177.129 C 103.218 176.838,102.769 176.150,102.498 175.600 C 102.227 175.050,101.839 174.330,101.635 174.000 C 100.728 172.535,99.600 169.915,99.600 169.277 C 99.600 168.892,99.353 168.223,99.050 167.789 C 98.748 167.355,98.367 166.208,98.205 165.241 C 98.043 164.273,97.680 162.923,97.399 162.241 C 97.118 161.558,96.758 159.470,96.600 157.600 C 96.441 155.730,96.138 153.985,95.926 153.723 C 95.209 152.837,96.525 138.827,97.498 136.977 C 97.723 136.550,98.041 135.390,98.204 134.400 C 98.367 133.410,98.748 132.245,99.050 131.811 C 99.353 131.377,99.606 130.747,99.614 130.411 C 99.621 130.075,99.975 129.080,100.400 128.200 C 100.825 127.320,101.179 126.474,101.186 126.320 C 101.194 126.166,101.740 125.240,102.400 124.262 C 103.060 123.284,103.600 122.371,103.600 122.233 C 103.600 121.958,105.560 118.873,106.199 118.142 C 106.420 117.890,107.050 117.097,107.600 116.381 C 108.893 114.697,114.697 108.893,116.381 107.600 C 117.097 107.050,117.890 106.420,118.142 106.199 C 118.873 105.560,121.958 103.600,122.233 103.600 C 122.371 103.600,123.284 103.060,124.262 102.400 C 125.240 101.740,126.166 101.194,126.320 101.186 C 126.474 101.179,127.320 100.825,128.200 100.400 C 129.080 99.975,130.075 99.621,130.411 99.614 C 130.747 99.606,131.377 99.353,131.811 99.050 C 132.245 98.748,133.410 98.367,134.400 98.204 C 135.390 98.041,136.550 97.723,136.977 97.498 C 139.634 96.100,146.064 95.844,181.700 95.717 L 216.800 95.591 216.821 100.696 C 216.851 108.144,217.767 113.930,219.420 117.098 C 219.736 117.704,219.996 118.493,219.998 118.851 C 219.999 119.209,220.270 119.726,220.600 120.000 C 220.930 120.274,221.200 120.688,221.200 120.920 C 221.200 122.234,228.516 131.200,229.588 131.200 C 229.793 131.200,230.104 131.425,230.280 131.701 C 230.746 132.429,235.530 135.600,236.164 135.600 C 236.460 135.600,236.917 135.858,237.179 136.174 C 237.441 136.490,238.228 136.873,238.928 137.025 C 239.627 137.178,240.555 137.549,240.989 137.851 C 241.423 138.153,242.233 138.402,242.789 138.404 C 243.345 138.407,244.700 138.699,245.800 139.054 C 248.608 139.961,256.789 139.955,259.000 139.045 L 260.600 138.386 258.400 138.672 C 235.068 141.705,218.163 126.482,217.232 101.600 L 217.000 95.400 181.400 95.349 C 161.820 95.321,144.990 95.448,144.000 95.631 M287.990 96.226 C 287.776 96.790,287.600 99.715,287.601 102.726 C 287.604 119.367,278.569 132.342,263.457 137.394 C 261.306 138.114,260.896 138.356,261.800 138.372 C 262.460 138.385,263.483 138.143,264.073 137.835 C 264.663 137.527,265.686 137.157,266.345 137.012 C 267.005 136.867,267.759 136.490,268.021 136.174 C 268.283 135.858,268.740 135.600,269.036 135.600 C 271.018 135.600,282.400 125.306,282.400 123.513 C 282.400 123.341,282.760 122.840,283.200 122.400 C 283.640 121.960,284.000 121.240,284.000 120.800 C 284.000 120.360,284.177 120.000,284.392 120.000 C 284.608 120.000,284.906 119.505,285.054 118.900 C 285.202 118.295,285.655 117.173,286.061 116.406 C 286.468 115.639,286.800 114.460,286.800 113.786 C 286.800 113.112,287.025 112.335,287.300 112.060 C 287.648 111.713,287.876 109.160,288.049 103.680 C 288.186 99.346,288.321 95.755,288.349 95.700 C 288.657 95.095,303.165 95.698,303.746 96.340 C 305.203 97.950,304.259 140.085,302.701 142.980 C 302.458 143.431,302.122 144.430,301.954 145.200 C 301.506 147.252,300.173 150.787,299.652 151.308 C 299.403 151.557,299.200 152.060,299.200 152.426 C 299.200 152.792,298.840 153.550,298.400 154.109 C 297.960 154.669,297.600 155.325,297.600 155.567 C 297.600 155.810,296.970 156.905,296.200 158.000 C 295.430 159.095,294.800 160.066,294.800 160.157 C 294.800 160.759,287.166 168.679,284.346 171.002 C 282.586 172.453,281.714 173.050,280.400 173.703 C 279.850 173.976,278.504 174.785,277.409 175.500 C 276.314 176.215,275.121 176.800,274.758 176.800 C 274.395 176.800,273.890 177.051,273.635 177.358 C 273.380 177.665,272.512 178.040,271.706 178.191 C 270.900 178.342,269.877 178.721,269.431 179.033 C 268.986 179.345,268.250 179.600,267.796 179.600 C 267.341 179.600,265.986 179.954,264.785 180.386 C 262.141 181.336,263.504 181.485,266.525 180.575 C 286.472 174.569,299.992 159.717,304.007 139.400 C 305.101 133.865,305.240 95.854,304.167 95.443 C 303.819 95.309,300.125 95.200,295.957 95.200 L 288.380 95.200 287.990 96.226 M193.805 107.897 C 192.928 107.986,192.028 108.209,191.805 108.392 C 191.582 108.575,190.500 108.851,189.400 109.006 C 188.300 109.160,187.001 109.537,186.514 109.843 C 186.027 110.150,185.424 110.400,185.175 110.400 C 183.463 110.400,173.600 116.275,173.600 117.295 C 173.600 117.463,173.369 117.600,173.087 117.600 C 172.437 117.600,168.000 122.058,168.000 122.712 C 168.000 122.980,167.857 123.200,167.682 123.200 C 166.702 123.200,160.800 133.162,160.800 134.816 C 160.800 135.159,160.601 135.639,160.359 135.881 C 160.116 136.124,159.680 137.465,159.390 138.861 C 159.100 140.258,158.673 142.120,158.441 143.000 C 157.895 145.072,157.895 154.528,158.441 156.600 C 158.673 157.480,159.100 159.342,159.390 160.739 C 159.680 162.135,160.116 163.476,160.359 163.719 C 160.601 163.961,160.800 164.493,160.800 164.901 C 160.800 165.534,161.515 167.158,162.869 169.600 C 163.052 169.930,163.363 170.567,163.559 171.016 C 163.756 171.465,164.205 172.073,164.558 172.365 C 164.911 172.658,165.200 173.081,165.200 173.305 C 165.200 173.750,169.245 178.918,170.598 180.200 C 172.193 181.713,179.761 187.200,180.252 187.200 C 180.395 187.200,181.342 187.579,182.356 188.043 C 183.370 188.507,184.740 189.133,185.400 189.434 C 186.634 189.997,188.846 190.599,192.000 191.231 C 193.774 191.586,198.375 192.045,207.800 192.807 C 210.440 193.021,214.580 193.396,217.000 193.641 C 219.420 193.886,224.910 194.326,229.200 194.618 C 233.490 194.911,238.980 195.340,241.400 195.571 C 243.820 195.802,248.050 196.162,250.800 196.372 C 257.993 196.920,262.416 197.544,263.860 198.215 C 264.554 198.537,265.544 198.806,266.060 198.814 C 266.577 198.821,267.720 199.175,268.600 199.600 C 269.480 200.025,270.493 200.379,270.851 200.386 C 271.209 200.394,271.726 200.670,272.000 201.000 C 272.274 201.330,272.736 201.600,273.028 201.600 C 273.893 201.600,281.065 205.753,282.000 206.795 C 282.110 206.918,282.688 207.329,283.284 207.708 C 285.015 208.809,289.557 213.190,291.674 215.800 C 292.745 217.120,293.841 218.463,294.110 218.785 C 294.380 219.107,294.780 219.679,295.000 220.056 C 295.220 220.434,296.255 222.187,297.300 223.953 C 298.345 225.718,299.200 227.313,299.200 227.497 C 299.200 227.681,299.560 228.537,300.000 229.400 C 300.440 230.263,300.800 231.280,300.800 231.661 C 300.800 232.041,300.964 232.454,301.165 232.578 C 301.366 232.703,301.657 233.568,301.812 234.502 C 301.968 235.436,302.334 236.668,302.627 237.240 C 304.539 240.979,304.543 259.781,302.633 263.560 C 302.344 264.132,301.986 265.267,301.839 266.083 C 301.691 266.899,301.308 268.069,300.988 268.683 C 300.667 269.297,300.404 270.042,300.402 270.338 C 300.401 270.634,300.160 271.354,299.866 271.938 C 298.180 275.292,297.034 277.424,296.824 277.600 C 296.692 277.710,296.355 278.250,296.076 278.800 C 295.176 280.572,294.481 281.702,294.134 281.954 C 293.948 282.089,293.267 282.920,292.621 283.800 C 291.107 285.863,285.863 291.107,283.800 292.621 C 282.920 293.267,282.089 293.948,281.954 294.134 C 281.702 294.481,280.572 295.176,278.800 296.076 C 278.250 296.355,277.710 296.686,277.600 296.811 C 277.137 297.337,273.611 299.200,273.078 299.200 C 272.759 299.200,272.286 299.456,272.026 299.769 C 271.766 300.082,270.845 300.457,269.979 300.604 C 269.113 300.750,268.312 301.018,268.200 301.200 C 268.088 301.382,267.232 301.657,266.298 301.812 C 265.364 301.968,264.139 302.331,263.575 302.619 C 260.901 303.986,256.006 304.159,219.400 304.180 L 183.400 304.200 183.167 296.400 C 182.981 290.200,182.797 288.354,182.269 287.400 C 181.904 286.740,181.604 285.718,181.602 285.129 C 181.601 284.539,181.352 283.809,181.049 283.506 C 180.746 283.203,180.374 282.392,180.223 281.705 C 180.072 281.018,179.690 280.241,179.374 279.979 C 179.058 279.717,178.800 279.297,178.800 279.047 C 178.800 277.725,173.517 271.256,170.000 268.271 C 168.996 267.418,166.041 265.551,164.200 264.605 C 163.540 264.266,162.730 263.832,162.400 263.641 C 161.084 262.879,157.327 261.600,156.392 261.596 C 155.847 261.593,154.516 261.323,153.436 260.996 C 150.791 260.193,143.786 260.196,141.862 261.000 C 141.072 261.330,139.795 261.600,139.024 261.600 C 137.667 261.600,136.178 262.157,131.653 264.356 C 128.319 265.976,127.600 266.414,127.600 266.822 C 127.600 267.030,127.345 267.200,127.033 267.200 C 126.221 267.200,119.887 273.465,118.542 275.600 C 117.918 276.590,117.296 277.490,117.159 277.600 C 117.023 277.710,116.418 278.880,115.816 280.200 C 115.213 281.520,114.468 283.140,114.160 283.800 C 113.851 284.460,113.431 285.810,113.225 286.800 C 113.020 287.790,112.664 289.320,112.435 290.200 C 112.206 291.080,112.015 294.350,112.010 297.467 C 112.004 300.584,111.891 303.419,111.757 303.767 C 111.358 304.806,97.199 304.704,96.250 303.655 C 94.766 302.015,95.865 260.743,97.471 257.800 C 97.711 257.360,98.041 256.190,98.204 255.200 C 98.367 254.210,98.748 253.045,99.050 252.611 C 99.353 252.177,99.606 251.547,99.614 251.211 C 99.621 250.875,99.975 249.880,100.400 249.000 C 100.825 248.120,101.179 247.258,101.186 247.084 C 101.194 246.910,101.539 246.280,101.953 245.684 C 102.367 245.088,103.714 243.054,104.947 241.165 C 108.812 235.239,117.877 226.917,122.792 224.781 C 123.337 224.544,123.877 224.225,123.992 224.071 C 124.106 223.918,125.280 223.378,126.600 222.870 C 127.920 222.363,129.770 221.600,130.711 221.174 C 131.652 220.748,132.876 220.400,133.431 220.400 C 133.986 220.400,134.961 220.130,135.598 219.801 C 138.965 218.060,155.667 218.047,159.820 219.783 C 160.633 220.122,161.771 220.387,162.349 220.371 C 164.667 220.306,159.258 218.905,154.032 218.216 C 146.092 217.169,131.730 218.910,129.444 221.196 C 129.222 221.418,128.671 221.603,128.220 221.606 C 125.732 221.623,115.624 228.347,110.777 233.210 C 106.068 237.934,99.200 248.243,99.200 250.587 C 99.200 250.888,98.939 251.645,98.620 252.268 C 97.589 254.279,96.433 258.890,95.809 263.473 C 95.142 268.373,94.908 303.320,95.535 304.309 C 95.783 304.699,97.759 304.792,104.029 304.709 L 112.200 304.600 112.442 298.200 C 112.682 291.833,113.465 286.994,114.616 284.769 C 114.937 284.148,115.210 283.316,115.223 282.920 C 115.236 282.524,115.768 281.300,116.405 280.200 C 117.043 279.100,117.744 277.840,117.963 277.400 C 121.528 270.229,132.629 263.000,142.200 261.618 C 143.960 261.364,145.907 261.078,146.527 260.982 C 154.840 259.704,169.154 266.370,175.055 274.268 C 175.685 275.111,176.419 276.032,176.687 276.316 C 177.489 277.164,181.200 285.053,181.200 285.908 C 181.200 286.343,181.495 287.487,181.856 288.450 C 182.330 289.714,182.580 292.200,182.756 297.400 L 183.000 304.600 218.800 304.725 C 258.716 304.864,258.371 304.883,266.981 302.137 C 270.992 300.858,277.019 298.175,278.343 297.080 C 278.641 296.833,279.215 296.444,279.617 296.216 C 283.844 293.815,291.400 286.891,293.931 283.100 C 294.629 282.055,295.718 280.435,296.352 279.500 C 306.368 264.716,307.474 242.000,298.965 225.786 C 288.804 206.421,270.513 195.755,247.200 195.601 C 245.550 195.590,243.480 195.412,242.600 195.206 C 241.720 195.000,237.670 194.636,233.600 194.396 C 229.530 194.156,225.030 193.779,223.600 193.559 C 222.170 193.338,218.480 193.004,215.400 192.816 C 188.290 191.161,181.688 189.235,171.288 179.944 C 159.571 169.477,155.122 147.311,161.927 133.309 C 169.371 117.991,184.181 107.705,197.677 108.478 L 199.800 108.600 200.009 122.200 C 200.222 136.018,200.646 140.307,202.208 144.400 C 202.502 145.170,202.858 146.340,203.001 147.000 C 203.400 148.853,207.106 156.324,208.949 158.989 C 216.292 169.615,226.572 177.133,238.435 180.555 C 241.659 181.485,243.124 181.360,240.415 180.386 C 239.214 179.954,237.818 179.600,237.314 179.600 C 236.810 179.600,235.725 179.240,234.904 178.800 C 234.084 178.360,233.226 178.000,232.998 178.000 C 232.464 178.000,226.334 174.924,226.031 174.504 C 225.904 174.328,225.350 173.964,224.800 173.695 C 221.538 172.100,210.400 161.549,210.400 160.054 C 210.400 159.826,210.175 159.496,209.900 159.320 C 209.334 158.957,208.751 157.952,206.473 153.400 C 204.205 148.868,203.200 146.430,203.198 145.449 C 203.196 144.982,202.911 144.060,202.564 143.400 C 201.495 141.366,201.089 136.343,200.840 122.085 C 200.556 105.879,201.184 107.145,193.805 107.897 M245.200 181.857 C 246.802 182.240,249.642 182.479,252.600 182.479 C 255.558 182.479,258.398 182.240,260.000 181.857 L 262.600 181.236 259.400 181.473 C 257.640 181.604,254.580 181.710,252.600 181.710 C 250.620 181.710,247.560 181.604,245.800 181.473 L 242.600 181.236 245.200 181.857 " stroke="none" fill="#94ccac" fill-rule="evenodd"></path><path id="path4" d="M141.000 95.417 L 139.800 95.998 141.200 95.780 C 141.970 95.660,143.410 95.414,144.400 95.234 L 146.200 94.907 144.200 94.871 C 143.100 94.852,141.660 95.098,141.000 95.417 M217.186 95.574 C 217.414 95.999,217.611 98.564,217.624 101.274 C 217.637 103.983,217.816 107.100,218.022 108.200 C 218.228 109.300,218.561 111.214,218.761 112.454 C 219.138 114.782,220.353 117.651,220.384 116.286 C 220.393 115.893,220.147 115.173,219.838 114.686 C 219.528 114.199,219.150 112.314,218.996 110.498 C 218.842 108.682,218.555 107.096,218.358 106.974 C 218.161 106.852,217.998 104.468,217.995 101.676 C 217.989 96.465,217.782 94.800,217.139 94.800 C 216.932 94.800,216.952 95.137,217.186 95.574 M304.000 95.092 C 304.330 95.217,304.732 95.518,304.894 95.760 C 305.335 96.420,305.228 134.707,304.779 136.800 C 304.567 137.790,304.302 139.230,304.190 140.000 L 303.986 141.400 304.675 139.800 C 305.292 138.371,305.380 136.025,305.509 117.805 C 305.666 95.551,305.625 94.783,304.282 94.832 C 303.684 94.853,303.593 94.937,304.000 95.092 M135.083 96.588 C 134.469 96.908,133.299 97.290,132.483 97.436 C 131.667 97.582,130.730 97.928,130.400 98.206 C 130.070 98.484,129.180 98.843,128.423 99.004 C 127.665 99.166,126.797 99.546,126.494 99.849 C 126.191 100.152,125.618 100.400,125.220 100.400 C 124.823 100.400,124.280 100.663,124.013 100.985 C 123.746 101.306,123.142 101.691,122.672 101.841 C 121.720 102.143,119.474 103.633,119.267 104.100 C 119.193 104.265,118.952 104.400,118.730 104.400 C 117.810 104.400,107.564 113.919,105.977 116.248 C 105.660 116.714,104.650 118.188,103.734 119.524 C 102.818 120.860,101.956 122.307,101.819 122.740 C 101.681 123.173,101.306 123.746,100.985 124.013 C 100.663 124.280,100.400 124.823,100.400 125.220 C 100.400 125.618,100.152 126.191,99.849 126.494 C 99.546 126.797,99.166 127.665,99.004 128.423 C 98.843 129.180,98.484 130.070,98.206 130.400 C 97.928 130.730,97.582 131.667,97.436 132.483 C 97.290 133.299,96.908 134.469,96.588 135.083 C 96.267 135.697,96.028 137.010,96.056 138.000 L 96.107 139.800 96.408 138.000 C 96.846 135.390,98.901 129.439,100.515 126.107 C 105.730 115.347,115.347 105.730,126.107 100.515 C 129.439 98.901,135.390 96.846,138.000 96.408 L 139.800 96.107 138.000 96.056 C 137.010 96.028,135.697 96.267,135.083 96.588 M287.286 101.220 C 287.239 104.201,287.029 106.811,286.821 107.020 C 286.612 107.229,286.322 108.660,286.176 110.200 C 286.029 111.740,285.664 113.513,285.365 114.140 C 285.066 114.767,284.708 115.886,284.569 116.626 C 284.430 117.366,284.065 118.180,283.758 118.435 C 283.451 118.690,283.200 119.212,283.200 119.595 C 283.200 119.978,282.840 120.750,282.400 121.309 C 281.960 121.869,281.600 122.504,281.600 122.720 C 281.600 122.937,281.330 123.218,281.000 123.345 C 280.670 123.471,280.400 123.780,280.400 124.031 C 280.400 124.981,273.371 132.000,272.420 132.000 C 272.211 132.000,271.896 132.229,271.720 132.508 C 271.544 132.788,270.950 133.237,270.400 133.506 C 269.850 133.774,269.130 134.145,268.800 134.329 C 266.300 135.723,264.708 136.401,263.921 136.406 C 262.922 136.413,261.697 137.030,262.027 137.361 C 262.545 137.878,268.234 135.427,271.600 133.236 C 275.475 130.714,277.922 128.359,280.897 124.289 C 283.474 120.763,285.647 115.997,286.408 112.200 C 287.428 107.116,287.620 105.072,287.501 100.600 L 287.372 95.800 287.286 101.220 M193.000 109.073 C 189.305 109.827,184.796 111.197,183.811 111.865 C 183.377 112.159,182.771 112.400,182.463 112.400 C 179.165 112.400,164.400 125.974,164.400 129.007 C 164.400 129.464,165.414 128.227,166.783 126.100 C 167.526 124.945,168.284 124.000,168.467 124.000 C 168.650 124.000,168.800 123.820,168.800 123.600 C 168.800 123.380,169.880 122.120,171.200 120.800 C 172.520 119.480,173.780 118.400,174.000 118.400 C 174.220 118.400,174.400 118.250,174.400 118.067 C 174.400 117.884,175.345 117.128,176.500 116.386 C 177.655 115.644,178.660 114.893,178.733 114.718 C 178.807 114.543,179.097 114.400,179.379 114.400 C 179.661 114.400,180.350 114.040,180.909 113.600 C 181.469 113.160,182.170 112.800,182.469 112.800 C 182.768 112.800,183.684 112.440,184.504 112.000 C 185.325 111.560,186.286 111.200,186.638 111.200 C 186.991 111.200,187.846 110.946,188.540 110.636 C 190.140 109.921,198.722 108.961,199.202 109.444 C 199.396 109.640,199.611 116.406,199.678 124.481 C 199.770 135.556,199.923 139.284,200.300 139.661 C 200.575 139.935,200.821 140.709,200.846 141.380 C 200.873 142.067,200.973 142.291,201.077 141.893 C 201.178 141.505,200.977 139.939,200.631 138.415 C 200.126 136.198,200.000 133.040,200.000 122.654 C 200.000 115.510,199.891 109.381,199.757 109.033 C 199.455 108.244,196.990 108.259,193.000 109.073 M220.400 117.512 C 220.400 117.991,221.762 120.651,223.005 122.600 C 230.658 134.595,244.510 140.735,258.400 138.290 C 262.307 137.603,260.617 137.412,256.000 138.019 C 252.484 138.482,243.873 137.782,242.611 136.932 C 242.177 136.639,241.395 136.400,240.874 136.400 C 240.353 136.400,239.469 136.040,238.909 135.600 C 238.350 135.160,237.630 134.800,237.309 134.800 C 236.989 134.800,236.269 134.440,235.709 134.000 C 235.150 133.560,234.466 133.200,234.189 133.200 C 233.912 133.200,233.582 132.930,233.455 132.600 C 233.329 132.270,232.968 132.000,232.654 132.000 C 231.139 132.000,224.533 124.545,222.284 120.298 C 220.638 117.189,220.400 116.837,220.400 117.512 M163.558 130.537 C 163.205 131.012,162.778 131.850,162.609 132.400 C 162.440 132.950,162.099 133.654,161.851 133.965 C 161.499 134.406,161.530 134.487,161.994 134.334 C 162.321 134.226,162.761 133.521,162.973 132.769 C 163.185 132.016,163.618 131.204,163.934 130.965 C 164.251 130.726,164.440 130.338,164.355 130.102 C 164.270 129.867,163.911 130.062,163.558 130.537 M160.866 136.665 C 160.572 137.509,160.269 138.830,160.193 139.600 C 160.117 140.370,160.149 140.563,160.264 140.029 C 160.380 139.495,160.741 138.652,161.066 138.155 C 161.392 137.658,161.600 136.774,161.529 136.191 C 161.408 135.196,161.366 135.226,160.866 136.665 M95.291 141.300 C 95.021 142.046,94.827 143.454,94.860 144.428 C 94.902 145.671,94.963 145.842,95.064 145.000 C 95.143 144.340,95.408 143.146,95.653 142.346 C 96.236 140.441,95.925 139.545,95.291 141.300 M159.390 142.700 C 158.959 144.872,158.985 155.168,159.425 156.716 C 159.689 157.643,159.804 155.538,159.814 149.616 C 159.830 140.499,159.829 140.486,159.390 142.700 M303.549 142.800 C 303.424 143.570,303.185 144.515,303.018 144.900 C 302.834 145.324,302.886 145.600,303.150 145.600 C 303.707 145.600,304.104 144.027,303.919 142.548 C 303.780 141.430,303.770 141.437,303.549 142.800 M201.232 143.611 C 201.214 144.167,201.443 144.977,201.739 145.411 C 202.036 145.845,202.397 146.830,202.541 147.600 C 202.777 148.859,203.529 150.748,204.453 152.400 C 204.637 152.730,205.062 153.540,205.397 154.200 C 205.732 154.860,206.445 156.120,206.982 157.000 C 207.519 157.880,208.144 159.005,208.370 159.500 C 208.595 159.995,208.965 160.400,209.190 160.400 C 209.416 160.400,209.600 160.597,209.600 160.837 C 209.600 161.760,218.683 171.600,219.535 171.600 C 219.723 171.600,220.202 171.960,220.600 172.400 C 220.998 172.840,221.572 173.200,221.875 173.200 C 222.177 173.200,222.529 173.470,222.655 173.800 C 222.782 174.130,223.080 174.400,223.317 174.400 C 223.554 174.400,224.152 174.779,224.646 175.243 C 225.139 175.706,225.768 176.011,226.042 175.919 C 226.317 175.828,225.835 175.326,224.971 174.805 C 218.276 170.765,209.727 161.881,206.875 156.000 C 206.608 155.450,205.987 154.280,205.495 153.400 C 204.384 151.414,202.800 147.566,202.800 146.853 C 202.800 146.560,202.546 145.754,202.236 145.060 C 201.926 144.367,201.580 143.530,201.467 143.200 C 201.351 142.859,201.250 143.036,201.232 143.611 M302.400 146.590 C 302.400 147.336,301.755 148.857,299.257 154.000 C 295.712 161.300,290.131 167.686,282.200 173.519 C 281.377 174.124,276.148 177.064,274.800 177.679 C 272.485 178.735,269.451 179.954,268.600 180.170 C 268.160 180.282,268.579 180.304,269.531 180.220 C 270.483 180.136,271.577 179.783,271.963 179.434 C 272.348 179.085,273.041 178.800,273.503 178.800 C 273.965 178.800,274.613 178.530,274.943 178.200 C 275.273 177.870,275.801 177.600,276.117 177.600 C 276.434 177.600,277.150 177.240,277.709 176.800 C 278.269 176.360,278.910 176.000,279.135 176.000 C 279.359 176.000,279.786 175.775,280.082 175.500 C 280.917 174.726,283.137 173.200,283.428 173.200 C 284.695 173.200,295.600 162.148,295.600 160.864 C 295.600 160.631,295.825 160.296,296.100 160.120 C 296.647 159.770,297.341 158.750,298.087 157.200 C 298.352 156.650,298.890 155.771,299.284 155.246 C 299.678 154.721,300.000 154.034,300.000 153.717 C 300.000 153.401,300.270 152.873,300.600 152.543 C 300.930 152.213,301.200 151.528,301.200 151.020 C 301.200 150.513,301.465 149.878,301.789 149.609 C 302.425 149.081,303.054 146.521,302.648 146.115 C 302.512 145.978,302.400 146.192,302.400 146.590 M94.832 155.492 C 94.814 156.642,95.054 158.262,95.366 159.092 C 95.677 159.921,96.032 161.576,96.155 162.770 C 96.278 163.963,96.555 165.049,96.771 165.182 C 96.986 165.315,97.286 166.196,97.437 167.139 C 97.587 168.082,97.956 169.099,98.255 169.398 C 98.555 169.698,98.800 170.220,98.800 170.559 C 98.800 171.128,99.967 173.793,100.833 175.200 C 101.036 175.530,101.378 176.208,101.593 176.706 C 101.981 177.604,103.579 180.016,104.040 180.400 C 104.172 180.510,104.512 181.039,104.794 181.575 C 105.377 182.680,105.676 183.061,107.500 185.019 C 108.215 185.786,108.800 186.597,108.800 186.820 C 108.800 187.043,109.067 187.328,109.393 187.453 C 110.128 187.735,113.200 190.775,113.200 191.220 C 113.200 191.399,113.560 191.660,114.000 191.800 C 114.440 191.940,114.800 192.197,114.800 192.373 C 114.800 192.792,117.958 194.975,118.207 194.727 C 118.312 194.621,117.601 193.962,116.627 193.262 C 110.985 189.211,102.018 178.188,100.595 173.554 C 100.434 173.029,100.158 172.419,99.982 172.197 C 99.018 170.980,96.608 162.922,95.796 158.200 C 94.922 153.114,94.870 152.966,94.832 155.492 M160.176 160.000 C 160.362 161.870,161.558 164.982,161.582 163.660 C 161.592 163.144,161.342 162.154,161.027 161.460 C 160.712 160.767,160.361 159.840,160.246 159.400 C 160.131 158.960,160.100 159.230,160.176 160.000 M161.613 164.993 C 161.582 165.943,164.194 170.572,164.338 169.824 C 164.420 169.400,164.227 168.861,163.910 168.626 C 163.592 168.392,163.221 167.750,163.084 167.200 C 162.815 166.119,161.634 164.348,161.613 164.993 M165.053 171.825 C 165.751 172.891,166.177 172.928,165.778 171.888 C 165.646 171.544,165.281 171.163,164.968 171.043 C 164.516 170.870,164.533 171.032,165.053 171.825 M166.436 173.900 C 169.748 178.242,171.110 179.680,173.900 181.782 C 175.055 182.652,176.000 183.507,176.000 183.682 C 176.000 183.857,176.177 184.000,176.392 184.000 C 176.608 184.000,177.769 184.630,178.973 185.400 C 181.268 186.868,181.827 187.091,181.375 186.359 C 181.225 186.117,180.494 185.664,179.751 185.354 C 179.008 185.043,178.400 184.612,178.400 184.395 C 178.400 184.178,178.130 184.000,177.800 184.000 C 177.470 184.000,176.840 183.640,176.400 183.200 C 175.960 182.760,175.480 182.400,175.334 182.400 C 175.013 182.400,174.688 182.102,170.652 178.112 C 168.921 176.400,167.351 174.595,167.162 174.100 C 166.974 173.605,166.613 173.200,166.361 173.200 C 166.044 173.200,166.068 173.417,166.436 173.900 M226.800 176.357 C 226.800 176.553,227.505 176.995,228.366 177.340 C 229.227 177.684,230.048 178.154,230.190 178.383 C 230.331 178.612,230.932 178.782,231.524 178.760 C 232.452 178.726,232.490 178.681,231.800 178.431 C 229.583 177.629,227.600 176.642,227.600 176.339 C 227.600 176.153,227.420 176.000,227.200 176.000 C 226.980 176.000,226.800 176.160,226.800 176.357 M233.544 179.613 C 234.081 180.060,235.031 180.382,235.744 180.359 L 237.000 180.318 235.663 180.002 C 234.928 179.828,234.127 179.487,233.883 179.243 C 233.639 178.999,233.251 178.806,233.020 178.813 C 232.789 178.821,233.025 179.181,233.544 179.613 M237.727 180.977 C 238.127 181.280,239.567 181.656,240.927 181.812 C 242.287 181.968,243.528 182.300,243.685 182.548 C 244.085 183.181,260.456 183.178,261.238 182.545 C 261.547 182.294,262.892 181.965,264.226 181.814 C 266.685 181.535,267.985 181.052,267.523 180.589 C 267.383 180.450,266.938 180.512,266.534 180.728 C 262.112 183.094,242.867 183.138,238.705 180.792 C 237.642 180.192,236.881 180.336,237.727 180.977 M182.653 187.382 C 183.599 188.044,186.511 189.173,188.000 189.454 C 188.691 189.585,188.505 189.393,187.400 188.835 C 186.520 188.391,185.472 188.021,185.071 188.014 C 184.671 188.006,184.073 187.730,183.743 187.400 C 183.413 187.070,182.846 186.800,182.482 186.800 C 181.947 186.800,181.979 186.910,182.653 187.382 M190.600 190.011 C 191.480 190.188,192.707 190.528,193.326 190.767 C 193.945 191.005,195.655 191.166,197.126 191.124 L 199.800 191.049 197.400 190.911 C 196.080 190.835,194.433 190.509,193.740 190.187 C 193.046 189.864,191.696 189.620,190.740 189.644 L 189.000 189.688 190.600 190.011 M204.800 191.589 C 209.875 192.366,212.214 192.514,211.761 192.031 C 211.497 191.749,209.583 191.500,206.961 191.407 C 203.563 191.286,203.086 191.326,204.800 191.589 M215.800 192.646 C 217.340 192.724,221.480 193.076,225.000 193.429 C 228.520 193.782,232.030 193.994,232.800 193.900 C 233.659 193.794,233.188 193.703,231.580 193.664 C 230.139 193.629,228.766 193.406,228.530 193.170 C 228.263 192.903,225.245 192.695,220.550 192.622 C 216.397 192.558,214.260 192.568,215.800 192.646 M238.000 194.432 C 240.090 194.597,243.150 194.919,244.800 195.148 C 246.450 195.377,249.600 195.581,251.800 195.600 C 254.000 195.619,256.610 195.808,257.600 196.021 C 259.786 196.489,262.512 196.865,261.400 196.544 C 260.960 196.418,260.389 196.143,260.130 195.933 C 259.872 195.724,256.722 195.397,253.130 195.208 C 249.539 195.019,245.700 194.680,244.600 194.456 C 243.500 194.231,240.710 194.067,238.400 194.090 L 234.200 194.132 238.000 194.432 M118.800 195.191 C 118.800 195.427,119.250 195.791,119.800 196.000 C 120.350 196.209,120.800 196.561,120.800 196.782 C 120.800 197.004,121.295 197.306,121.900 197.454 C 122.505 197.602,123.090 197.847,123.200 197.999 C 123.518 198.437,127.610 200.400,128.204 200.400 C 128.501 200.400,129.008 200.665,129.332 200.989 C 129.656 201.313,130.704 201.667,131.660 201.776 C 132.617 201.884,133.040 201.882,132.600 201.770 C 130.728 201.295,124.486 198.446,123.682 197.700 C 123.385 197.425,122.963 197.200,122.743 197.200 C 122.524 197.200,121.547 196.651,120.572 195.981 C 119.597 195.310,118.800 194.955,118.800 195.191 M263.600 197.172 C 264.370 197.326,265.393 197.665,265.874 197.926 C 266.354 198.187,267.072 198.400,267.468 198.400 C 267.904 198.400,267.600 198.085,266.696 197.600 C 265.875 197.160,264.527 196.821,263.701 196.846 L 262.200 196.892 263.600 197.172 M269.346 199.002 C 270.790 199.756,271.027 199.755,270.400 199.000 C 270.126 198.670,269.519 198.401,269.051 198.402 C 268.313 198.405,268.353 198.485,269.346 199.002 M274.418 201.304 C 278.000 203.110,281.561 205.328,284.200 207.400 C 286.326 209.069,286.800 209.329,286.800 208.824 C 286.800 208.591,286.575 208.394,286.300 208.387 C 286.025 208.380,285.171 207.743,284.402 206.970 C 283.633 206.198,282.598 205.464,282.102 205.340 C 281.606 205.215,281.200 204.963,281.200 204.778 C 281.200 204.465,280.419 203.965,278.000 202.728 C 277.450 202.446,276.910 202.106,276.800 201.971 C 276.411 201.494,272.325 199.600,271.685 199.600 C 271.328 199.600,272.558 200.367,274.418 201.304 M133.600 202.373 C 133.600 202.827,134.383 203.070,137.000 203.428 C 138.100 203.578,139.247 203.899,139.549 204.140 C 139.877 204.403,142.218 204.602,145.349 204.635 L 150.600 204.690 146.400 204.431 C 142.162 204.169,135.988 203.088,134.705 202.382 C 133.835 201.903,133.600 201.901,133.600 202.373 M151.420 205.168 C 151.920 205.652,161.101 206.416,165.522 206.341 C 168.455 206.292,168.092 206.231,163.200 205.957 C 160.010 205.778,156.645 205.444,155.723 205.216 C 153.616 204.694,150.899 204.663,151.420 205.168 M169.727 206.812 C 170.166 207.089,172.857 207.316,176.527 207.387 C 181.961 207.492,182.179 207.472,178.600 207.201 C 176.400 207.034,173.340 206.775,171.800 206.625 C 169.621 206.414,169.161 206.455,169.727 206.812 M186.200 207.889 C 186.640 207.998,187.180 208.230,187.400 208.406 C 187.620 208.582,191.490 208.855,196.000 209.012 C 200.510 209.170,204.381 209.442,204.602 209.617 C 204.823 209.792,206.521 210.143,208.376 210.397 C 210.231 210.651,212.115 211.115,212.563 211.429 C 213.011 211.743,213.856 212.000,214.440 212.000 C 215.024 212.000,215.726 212.270,216.000 212.600 C 216.274 212.930,216.812 213.200,217.195 213.200 C 217.578 213.200,218.350 213.560,218.909 214.000 C 219.469 214.440,220.218 214.800,220.576 214.800 C 220.933 214.800,221.324 215.057,221.445 215.372 C 221.565 215.687,222.190 216.127,222.832 216.351 C 223.474 216.575,224.000 216.948,224.000 217.179 C 224.000 217.411,224.229 217.600,224.508 217.600 C 225.475 217.600,233.986 226.426,233.996 227.438 C 233.998 227.679,234.360 228.202,234.800 228.600 C 236.308 229.964,235.103 227.706,233.135 225.477 C 232.769 225.063,231.783 223.871,230.943 222.828 C 230.103 221.786,228.199 219.958,226.712 218.766 C 225.225 217.575,224.006 216.486,224.004 216.347 C 224.002 216.207,223.685 215.990,223.300 215.864 C 222.915 215.737,221.880 215.178,221.000 214.621 C 220.120 214.064,218.950 213.425,218.400 213.202 C 217.850 212.978,216.922 212.526,216.338 212.197 C 215.754 211.869,214.983 211.600,214.624 211.600 C 214.265 211.600,213.573 211.347,213.086 211.038 C 212.599 210.729,211.210 210.349,210.000 210.193 C 208.790 210.038,207.587 209.738,207.326 209.528 C 207.065 209.317,203.735 208.984,199.926 208.786 C 196.117 208.589,191.470 208.243,189.600 208.017 C 186.097 207.594,184.799 207.545,186.200 207.889 M290.018 212.867 C 294.419 217.364,299.145 224.618,301.049 229.800 C 302.400 233.476,303.539 237.081,303.704 238.202 C 303.842 239.143,303.893 239.027,303.940 237.662 C 303.973 236.706,303.741 235.446,303.424 234.862 C 303.107 234.278,302.742 233.143,302.613 232.340 C 302.484 231.537,302.114 230.660,301.789 230.391 C 301.465 230.122,301.200 229.579,301.200 229.184 C 301.200 228.349,299.233 224.263,298.737 224.067 C 298.551 223.993,298.400 223.616,298.400 223.229 C 298.400 222.841,298.040 222.198,297.600 221.800 C 297.160 221.402,296.800 220.828,296.800 220.525 C 296.800 220.223,296.546 219.878,296.236 219.759 C 295.926 219.639,295.571 219.150,295.448 218.671 C 295.324 218.192,294.318 216.846,293.212 215.680 C 292.105 214.514,291.200 213.461,291.200 213.340 C 291.200 213.000,287.515 209.600,287.146 209.600 C 286.967 209.600,288.259 211.070,290.018 212.867 M141.000 217.192 C 138.725 217.781,137.560 218.445,139.200 218.218 C 147.428 217.081,150.032 217.052,154.489 218.051 C 157.273 218.675,157.764 218.231,155.138 217.462 C 152.729 216.757,143.374 216.578,141.000 217.192 M133.580 218.937 C 133.019 219.230,131.872 219.581,131.031 219.718 C 130.189 219.854,129.208 220.221,128.850 220.532 C 128.493 220.844,127.525 221.220,126.700 221.367 C 125.875 221.515,125.200 221.794,125.200 221.987 C 125.200 222.180,124.570 222.546,123.800 222.800 C 123.030 223.054,122.400 223.428,122.400 223.631 C 122.400 224.073,123.077 224.126,123.267 223.700 C 123.340 223.535,124.390 222.976,125.600 222.459 C 126.810 221.941,128.340 221.265,129.000 220.956 C 130.347 220.327,133.785 219.307,136.200 218.822 L 137.800 218.500 136.200 218.453 C 135.320 218.426,134.141 218.644,133.580 218.937 M158.800 218.667 C 160.233 218.894,165.186 220.385,166.600 221.015 C 170.806 222.891,172.053 223.502,174.200 224.741 C 178.866 227.433,186.490 233.997,188.672 237.200 C 189.047 237.750,189.456 238.290,189.582 238.400 C 190.002 238.767,194.035 245.036,194.472 246.000 C 194.678 246.456,194.751 246.405,194.772 245.789 C 194.787 245.343,194.440 244.670,194.000 244.293 C 193.560 243.916,193.200 243.349,193.200 243.032 C 193.200 242.716,192.975 242.219,192.700 241.929 C 192.425 241.638,191.660 240.590,191.000 239.600 C 189.287 237.030,189.320 237.070,185.800 233.447 C 182.374 229.920,178.749 226.800,178.078 226.800 C 177.852 226.800,177.607 226.665,177.533 226.500 C 177.328 226.037,174.213 224.000,173.712 224.000 C 173.467 224.000,173.207 223.849,173.133 223.663 C 172.937 223.167,168.851 221.200,168.016 221.200 C 167.621 221.200,167.078 220.935,166.809 220.611 C 166.540 220.286,165.663 219.916,164.860 219.787 C 164.057 219.658,162.922 219.293,162.338 218.976 C 161.754 218.659,160.494 218.425,159.538 218.454 C 158.559 218.485,158.236 218.578,158.800 218.667 M119.611 225.054 C 118.848 225.596,118.128 226.187,118.011 226.366 C 117.895 226.545,117.395 226.819,116.900 226.973 C 116.405 227.128,116.000 227.428,116.000 227.640 C 116.000 227.852,115.643 228.158,115.206 228.319 C 113.685 228.882,104.800 238.071,104.800 239.081 C 104.800 239.298,104.440 239.802,104.000 240.200 C 103.560 240.598,103.200 241.067,103.200 241.242 C 103.200 241.417,102.654 242.369,101.987 243.357 C 101.320 244.345,100.583 245.704,100.348 246.377 C 100.114 247.050,99.768 247.600,99.579 247.600 C 99.390 247.600,99.115 248.275,98.967 249.100 C 98.820 249.925,98.474 250.870,98.200 251.200 C 97.926 251.530,97.582 252.467,97.436 253.283 C 97.290 254.099,96.908 255.269,96.588 255.883 C 96.267 256.497,96.031 257.720,96.062 258.600 C 96.111 259.960,96.146 260.020,96.296 259.002 C 96.590 257.004,99.055 249.978,100.577 246.800 C 103.897 239.870,111.387 231.347,118.214 226.733 C 122.413 223.894,122.293 223.990,121.567 224.034 C 121.255 224.053,120.375 224.512,119.611 225.054 M235.600 229.983 C 235.600 230.253,235.960 230.931,236.400 231.491 C 236.840 232.050,237.200 232.822,237.200 233.205 C 237.200 233.588,237.470 234.126,237.800 234.400 C 238.130 234.674,238.401 235.371,238.403 235.949 C 238.404 236.527,238.763 237.540,239.200 238.200 C 240.130 239.604,240.271 239.010,239.402 237.346 C 239.074 236.716,238.804 235.925,238.802 235.589 C 238.801 235.253,238.554 234.623,238.254 234.189 C 237.954 233.755,237.569 232.950,237.399 232.400 C 237.030 231.204,235.600 229.284,235.600 229.983 M304.013 240.000 C 304.006 240.110,304.267 241.460,304.593 243.000 C 305.360 246.620,305.363 253.876,304.600 257.865 C 303.869 261.687,303.869 261.565,304.591 260.534 C 305.872 258.705,305.860 242.219,304.576 240.526 C 304.273 240.127,304.020 239.890,304.013 240.000 M240.194 242.782 C 240.310 244.203,240.584 245.544,240.802 245.762 C 241.418 246.378,241.275 253.558,240.612 255.400 C 240.295 256.280,240.039 257.720,240.044 258.600 L 240.054 260.200 240.677 258.400 C 241.610 255.706,241.611 245.357,240.678 242.400 L 239.984 240.200 240.194 242.782 M195.151 247.456 C 195.963 248.920,197.200 252.113,197.202 252.751 C 197.204 253.108,197.489 253.940,197.836 254.600 C 198.183 255.260,198.612 256.520,198.790 257.400 L 199.112 259.000 199.156 257.585 C 199.180 256.806,198.840 255.463,198.400 254.600 C 197.960 253.737,197.600 252.697,197.600 252.289 C 197.600 251.881,197.377 251.154,197.104 250.674 C 196.831 250.193,196.424 249.184,196.200 248.432 C 195.976 247.680,195.555 246.985,195.266 246.889 C 194.864 246.755,194.836 246.889,195.151 247.456 M199.398 260.400 C 199.566 261.170,199.843 263.240,200.015 265.000 L 200.327 268.200 200.249 264.106 C 200.196 261.275,200.006 259.856,199.633 259.506 C 199.185 259.085,199.145 259.235,199.398 260.400 M95.221 261.900 C 94.992 262.725,94.830 264.390,94.861 265.600 L 94.918 267.800 95.241 265.600 C 95.419 264.390,95.682 262.725,95.826 261.900 C 95.970 261.075,95.986 260.400,95.863 260.400 C 95.739 260.400,95.450 261.075,95.221 261.900 M143.600 261.646 C 141.950 261.835,140.330 262.048,140.000 262.120 C 139.670 262.193,143.180 262.248,147.800 262.244 L 156.200 262.237 152.400 261.752 C 148.005 261.193,147.614 261.188,143.600 261.646 M239.238 262.155 C 238.976 262.470,238.672 263.420,238.563 264.264 L 238.366 265.800 239.173 263.824 C 240.019 261.754,240.041 261.187,239.238 262.155 M303.670 262.513 C 303.594 263.718,302.312 267.831,301.379 269.860 C 301.061 270.554,300.800 271.295,300.800 271.508 C 300.800 272.084,297.694 277.929,296.287 280.000 C 295.615 280.990,294.530 282.584,293.876 283.542 C 292.383 285.728,285.581 292.482,283.308 294.034 C 282.369 294.675,280.823 295.731,279.873 296.379 C 277.911 297.719,272.892 300.339,270.800 301.117 C 267.472 302.353,263.707 303.541,262.598 303.704 C 261.695 303.837,261.846 303.895,263.211 303.940 C 264.207 303.973,265.377 303.753,265.811 303.450 C 266.245 303.148,267.355 302.774,268.277 302.619 C 269.199 302.464,270.166 302.082,270.426 301.769 C 270.686 301.456,271.221 301.200,271.616 301.200 C 272.331 301.200,274.752 300.024,277.800 298.198 C 278.680 297.670,279.805 297.021,280.300 296.755 C 280.795 296.489,281.200 296.120,281.200 295.936 C 281.200 295.751,281.425 295.598,281.700 295.595 C 282.251 295.589,283.713 294.494,285.832 292.500 C 286.593 291.785,287.297 291.200,287.397 291.200 C 287.635 291.200,291.200 287.635,291.200 287.397 C 291.200 287.297,291.785 286.593,292.500 285.832 C 294.459 283.750,295.589 282.253,295.595 281.733 C 295.598 281.477,295.735 281.207,295.900 281.133 C 296.355 280.931,298.400 277.818,298.400 277.327 C 298.400 277.091,298.658 276.683,298.974 276.421 C 299.290 276.159,299.664 275.417,299.806 274.772 C 299.948 274.128,300.215 273.600,300.400 273.600 C 300.585 273.600,300.851 273.078,300.991 272.439 C 301.132 271.801,301.596 270.592,302.023 269.754 C 302.450 268.916,302.800 267.903,302.800 267.501 C 302.800 267.100,303.081 266.343,303.425 265.819 C 303.830 265.200,303.995 264.257,303.894 263.133 C 303.807 262.153,303.709 261.884,303.670 262.513 M137.400 262.800 C 137.264 263.020,136.848 263.202,136.476 263.204 C 135.399 263.209,131.634 265.173,132.671 265.187 C 133.151 265.194,133.808 264.935,134.132 264.611 C 134.456 264.287,135.481 263.851,136.409 263.643 C 138.206 263.239,139.485 262.400,138.304 262.400 C 137.943 262.400,137.536 262.580,137.400 262.800 M156.976 263.013 C 157.404 263.336,158.126 263.600,158.582 263.600 C 159.039 263.600,160.084 263.960,160.904 264.400 C 162.818 265.426,163.804 265.444,162.129 264.422 C 161.430 263.996,160.213 263.526,159.425 263.378 C 158.636 263.230,157.893 262.950,157.772 262.755 C 157.651 262.560,157.248 262.406,156.876 262.413 C 156.285 262.424,156.297 262.499,156.976 263.013 M130.400 265.800 C 130.126 266.130,129.682 266.400,129.413 266.400 C 129.144 266.400,128.598 266.760,128.200 267.200 C 127.768 267.677,127.668 268.000,127.951 268.000 C 128.212 268.000,128.529 267.730,128.655 267.400 C 128.782 267.070,129.116 266.800,129.398 266.800 C 130.039 266.800,131.967 265.232,131.349 265.213 C 131.101 265.206,130.674 265.470,130.400 265.800 M164.344 266.013 C 164.864 266.446,165.539 266.800,165.844 266.800 C 166.150 266.800,166.400 266.986,166.400 267.213 C 166.400 267.439,166.715 267.738,167.100 267.876 C 168.389 268.338,172.028 271.677,174.280 274.464 C 175.506 275.982,176.595 277.138,176.699 277.034 C 177.369 276.364,170.564 269.457,166.837 267.024 C 163.958 265.145,162.679 264.626,164.344 266.013 M237.673 266.487 C 237.413 266.747,237.200 267.260,237.200 267.626 C 237.200 267.992,236.840 268.750,236.400 269.309 C 235.960 269.869,235.600 270.547,235.600 270.817 C 235.600 271.087,235.960 270.850,236.400 270.291 C 236.840 269.731,237.201 269.122,237.202 268.937 C 237.204 268.752,237.477 268.078,237.810 267.440 C 238.473 266.169,238.412 265.748,237.673 266.487 M123.941 270.748 C 122.323 272.260,120.055 274.877,118.900 276.564 C 116.649 279.853,116.329 280.550,117.600 279.400 C 118.040 279.002,118.400 278.471,118.400 278.219 C 118.400 277.513,119.495 276.177,123.400 272.114 C 125.380 270.054,127.075 268.286,127.167 268.185 C 127.258 268.083,127.232 268.000,127.107 268.000 C 126.983 268.000,125.558 269.237,123.941 270.748 M234.664 272.329 C 234.299 272.733,234.000 273.184,234.000 273.331 C 234.000 273.479,233.685 273.930,233.300 274.334 C 232.915 274.738,232.330 275.474,232.000 275.971 C 230.770 277.822,225.142 283.200,224.434 283.200 C 224.196 283.200,224.000 283.358,224.000 283.551 C 224.000 283.745,223.473 284.121,222.829 284.388 C 222.185 284.655,221.560 285.127,221.441 285.438 C 220.518 287.844,229.097 280.362,233.089 275.281 C 235.386 272.356,236.460 270.345,234.664 272.329 M176.892 277.800 C 177.431 279.308,178.807 281.957,179.167 282.180 C 179.830 282.589,179.682 281.366,179.000 280.800 C 178.670 280.526,178.400 280.074,178.400 279.795 C 178.400 279.517,178.028 278.864,177.574 278.344 C 177.120 277.825,176.813 277.580,176.892 277.800 M116.098 281.263 C 115.339 282.756,114.334 285.711,114.215 286.800 C 114.153 287.367,114.186 287.459,114.292 287.011 C 114.395 286.578,114.731 285.862,115.039 285.422 C 115.348 284.982,115.600 284.252,115.600 283.800 C 115.600 283.348,115.883 282.573,116.230 282.079 C 116.576 281.584,116.796 280.987,116.717 280.752 C 116.639 280.518,116.361 280.747,116.098 281.263 M179.609 283.400 C 179.613 284.334,180.253 285.480,180.585 285.148 C 180.711 285.022,180.542 284.397,180.210 283.760 C 179.726 282.833,179.606 282.761,179.609 283.400 M181.070 288.400 C 181.196 290.054,181.561 291.759,181.884 292.200 C 182.604 293.184,182.452 292.107,181.034 286.200 C 180.928 285.760,180.945 286.750,181.070 288.400 M218.856 286.813 C 217.631 287.833,218.253 287.824,219.800 286.800 C 220.460 286.363,220.730 286.010,220.400 286.016 C 220.070 286.022,219.375 286.381,218.856 286.813 M215.855 288.200 C 215.567 288.952,215.972 288.947,216.976 288.187 C 217.739 287.610,217.738 287.600,216.919 287.600 C 216.461 287.600,215.982 287.870,215.855 288.200 M113.255 290.667 C 113.005 291.913,112.800 295.477,112.800 298.587 C 112.800 305.775,113.562 305.201,104.020 305.194 C 96.157 305.188,95.511 305.101,95.092 304.000 C 94.933 303.584,94.853 303.662,94.832 304.253 C 94.786 305.475,95.582 305.588,104.256 305.595 C 114.335 305.602,113.469 306.453,113.715 296.300 C 113.926 287.591,113.911 287.403,113.255 290.667 M212.142 289.385 C 211.683 289.707,209.618 290.175,207.553 290.424 C 205.489 290.674,203.619 291.025,203.398 291.206 C 203.178 291.387,202.458 291.616,201.798 291.716 C 201.139 291.815,201.680 291.819,203.000 291.724 C 205.856 291.518,210.448 290.577,212.400 289.797 C 213.170 289.489,214.160 289.160,214.600 289.065 C 215.120 288.953,214.977 288.877,214.189 288.846 C 213.523 288.821,212.602 289.063,212.142 289.385 M182.440 304.092 C 182.381 305.700,180.965 305.649,221.889 305.519 C 257.998 305.405,259.602 305.369,260.286 304.657 C 260.973 303.942,260.970 303.923,260.200 304.134 C 256.542 305.141,252.858 305.228,218.818 305.117 L 183.036 305.000 182.758 304.000 L 182.480 303.000 182.440 304.092 " stroke="none" fill="#5eb688" fill-rule="evenodd"></path></g></svg>